%TF.GenerationSoftware,KiCad,Pcbnew,7.0.1*%
%TF.CreationDate,2025-02-25T21:51:12-03:00*%
%TF.ProjectId,resistorDecade,72657369-7374-46f7-9244-65636164652e,rev?*%
%TF.SameCoordinates,Original*%
%TF.FileFunction,Legend,Top*%
%TF.FilePolarity,Positive*%
%FSLAX46Y46*%
G04 Gerber Fmt 4.6, Leading zero omitted, Abs format (unit mm)*
G04 Created by KiCad (PCBNEW 7.0.1) date 2025-02-25 21:51:12*
%MOMM*%
%LPD*%
G01*
G04 APERTURE LIST*
%ADD10C,0.150000*%
%ADD11C,0.120000*%
G04 APERTURE END LIST*
D10*
%TO.C,R16*%
X127157142Y-69992619D02*
X126823809Y-69516428D01*
X126585714Y-69992619D02*
X126585714Y-68992619D01*
X126585714Y-68992619D02*
X126966666Y-68992619D01*
X126966666Y-68992619D02*
X127061904Y-69040238D01*
X127061904Y-69040238D02*
X127109523Y-69087857D01*
X127109523Y-69087857D02*
X127157142Y-69183095D01*
X127157142Y-69183095D02*
X127157142Y-69325952D01*
X127157142Y-69325952D02*
X127109523Y-69421190D01*
X127109523Y-69421190D02*
X127061904Y-69468809D01*
X127061904Y-69468809D02*
X126966666Y-69516428D01*
X126966666Y-69516428D02*
X126585714Y-69516428D01*
X128109523Y-69992619D02*
X127538095Y-69992619D01*
X127823809Y-69992619D02*
X127823809Y-68992619D01*
X127823809Y-68992619D02*
X127728571Y-69135476D01*
X127728571Y-69135476D02*
X127633333Y-69230714D01*
X127633333Y-69230714D02*
X127538095Y-69278333D01*
X128966666Y-68992619D02*
X128776190Y-68992619D01*
X128776190Y-68992619D02*
X128680952Y-69040238D01*
X128680952Y-69040238D02*
X128633333Y-69087857D01*
X128633333Y-69087857D02*
X128538095Y-69230714D01*
X128538095Y-69230714D02*
X128490476Y-69421190D01*
X128490476Y-69421190D02*
X128490476Y-69802142D01*
X128490476Y-69802142D02*
X128538095Y-69897380D01*
X128538095Y-69897380D02*
X128585714Y-69945000D01*
X128585714Y-69945000D02*
X128680952Y-69992619D01*
X128680952Y-69992619D02*
X128871428Y-69992619D01*
X128871428Y-69992619D02*
X128966666Y-69945000D01*
X128966666Y-69945000D02*
X129014285Y-69897380D01*
X129014285Y-69897380D02*
X129061904Y-69802142D01*
X129061904Y-69802142D02*
X129061904Y-69564047D01*
X129061904Y-69564047D02*
X129014285Y-69468809D01*
X129014285Y-69468809D02*
X128966666Y-69421190D01*
X128966666Y-69421190D02*
X128871428Y-69373571D01*
X128871428Y-69373571D02*
X128680952Y-69373571D01*
X128680952Y-69373571D02*
X128585714Y-69421190D01*
X128585714Y-69421190D02*
X128538095Y-69468809D01*
X128538095Y-69468809D02*
X128490476Y-69564047D01*
%TO.C,R3*%
X107883333Y-54392619D02*
X107550000Y-53916428D01*
X107311905Y-54392619D02*
X107311905Y-53392619D01*
X107311905Y-53392619D02*
X107692857Y-53392619D01*
X107692857Y-53392619D02*
X107788095Y-53440238D01*
X107788095Y-53440238D02*
X107835714Y-53487857D01*
X107835714Y-53487857D02*
X107883333Y-53583095D01*
X107883333Y-53583095D02*
X107883333Y-53725952D01*
X107883333Y-53725952D02*
X107835714Y-53821190D01*
X107835714Y-53821190D02*
X107788095Y-53868809D01*
X107788095Y-53868809D02*
X107692857Y-53916428D01*
X107692857Y-53916428D02*
X107311905Y-53916428D01*
X108216667Y-53392619D02*
X108835714Y-53392619D01*
X108835714Y-53392619D02*
X108502381Y-53773571D01*
X108502381Y-53773571D02*
X108645238Y-53773571D01*
X108645238Y-53773571D02*
X108740476Y-53821190D01*
X108740476Y-53821190D02*
X108788095Y-53868809D01*
X108788095Y-53868809D02*
X108835714Y-53964047D01*
X108835714Y-53964047D02*
X108835714Y-54202142D01*
X108835714Y-54202142D02*
X108788095Y-54297380D01*
X108788095Y-54297380D02*
X108740476Y-54345000D01*
X108740476Y-54345000D02*
X108645238Y-54392619D01*
X108645238Y-54392619D02*
X108359524Y-54392619D01*
X108359524Y-54392619D02*
X108264286Y-54345000D01*
X108264286Y-54345000D02*
X108216667Y-54297380D01*
%TO.C,R54*%
X122847142Y-111892619D02*
X122513809Y-111416428D01*
X122275714Y-111892619D02*
X122275714Y-110892619D01*
X122275714Y-110892619D02*
X122656666Y-110892619D01*
X122656666Y-110892619D02*
X122751904Y-110940238D01*
X122751904Y-110940238D02*
X122799523Y-110987857D01*
X122799523Y-110987857D02*
X122847142Y-111083095D01*
X122847142Y-111083095D02*
X122847142Y-111225952D01*
X122847142Y-111225952D02*
X122799523Y-111321190D01*
X122799523Y-111321190D02*
X122751904Y-111368809D01*
X122751904Y-111368809D02*
X122656666Y-111416428D01*
X122656666Y-111416428D02*
X122275714Y-111416428D01*
X123751904Y-110892619D02*
X123275714Y-110892619D01*
X123275714Y-110892619D02*
X123228095Y-111368809D01*
X123228095Y-111368809D02*
X123275714Y-111321190D01*
X123275714Y-111321190D02*
X123370952Y-111273571D01*
X123370952Y-111273571D02*
X123609047Y-111273571D01*
X123609047Y-111273571D02*
X123704285Y-111321190D01*
X123704285Y-111321190D02*
X123751904Y-111368809D01*
X123751904Y-111368809D02*
X123799523Y-111464047D01*
X123799523Y-111464047D02*
X123799523Y-111702142D01*
X123799523Y-111702142D02*
X123751904Y-111797380D01*
X123751904Y-111797380D02*
X123704285Y-111845000D01*
X123704285Y-111845000D02*
X123609047Y-111892619D01*
X123609047Y-111892619D02*
X123370952Y-111892619D01*
X123370952Y-111892619D02*
X123275714Y-111845000D01*
X123275714Y-111845000D02*
X123228095Y-111797380D01*
X124656666Y-111225952D02*
X124656666Y-111892619D01*
X124418571Y-110845000D02*
X124180476Y-111559285D01*
X124180476Y-111559285D02*
X124799523Y-111559285D01*
%TO.C,R15*%
X127157142Y-66392619D02*
X126823809Y-65916428D01*
X126585714Y-66392619D02*
X126585714Y-65392619D01*
X126585714Y-65392619D02*
X126966666Y-65392619D01*
X126966666Y-65392619D02*
X127061904Y-65440238D01*
X127061904Y-65440238D02*
X127109523Y-65487857D01*
X127109523Y-65487857D02*
X127157142Y-65583095D01*
X127157142Y-65583095D02*
X127157142Y-65725952D01*
X127157142Y-65725952D02*
X127109523Y-65821190D01*
X127109523Y-65821190D02*
X127061904Y-65868809D01*
X127061904Y-65868809D02*
X126966666Y-65916428D01*
X126966666Y-65916428D02*
X126585714Y-65916428D01*
X128109523Y-66392619D02*
X127538095Y-66392619D01*
X127823809Y-66392619D02*
X127823809Y-65392619D01*
X127823809Y-65392619D02*
X127728571Y-65535476D01*
X127728571Y-65535476D02*
X127633333Y-65630714D01*
X127633333Y-65630714D02*
X127538095Y-65678333D01*
X129014285Y-65392619D02*
X128538095Y-65392619D01*
X128538095Y-65392619D02*
X128490476Y-65868809D01*
X128490476Y-65868809D02*
X128538095Y-65821190D01*
X128538095Y-65821190D02*
X128633333Y-65773571D01*
X128633333Y-65773571D02*
X128871428Y-65773571D01*
X128871428Y-65773571D02*
X128966666Y-65821190D01*
X128966666Y-65821190D02*
X129014285Y-65868809D01*
X129014285Y-65868809D02*
X129061904Y-65964047D01*
X129061904Y-65964047D02*
X129061904Y-66202142D01*
X129061904Y-66202142D02*
X129014285Y-66297380D01*
X129014285Y-66297380D02*
X128966666Y-66345000D01*
X128966666Y-66345000D02*
X128871428Y-66392619D01*
X128871428Y-66392619D02*
X128633333Y-66392619D01*
X128633333Y-66392619D02*
X128538095Y-66345000D01*
X128538095Y-66345000D02*
X128490476Y-66297380D01*
%TO.C,J2*%
X117411666Y-46552619D02*
X117411666Y-47266904D01*
X117411666Y-47266904D02*
X117364047Y-47409761D01*
X117364047Y-47409761D02*
X117268809Y-47505000D01*
X117268809Y-47505000D02*
X117125952Y-47552619D01*
X117125952Y-47552619D02*
X117030714Y-47552619D01*
X117840238Y-46647857D02*
X117887857Y-46600238D01*
X117887857Y-46600238D02*
X117983095Y-46552619D01*
X117983095Y-46552619D02*
X118221190Y-46552619D01*
X118221190Y-46552619D02*
X118316428Y-46600238D01*
X118316428Y-46600238D02*
X118364047Y-46647857D01*
X118364047Y-46647857D02*
X118411666Y-46743095D01*
X118411666Y-46743095D02*
X118411666Y-46838333D01*
X118411666Y-46838333D02*
X118364047Y-46981190D01*
X118364047Y-46981190D02*
X117792619Y-47552619D01*
X117792619Y-47552619D02*
X118411666Y-47552619D01*
%TO.C,R13*%
X127157142Y-58792619D02*
X126823809Y-58316428D01*
X126585714Y-58792619D02*
X126585714Y-57792619D01*
X126585714Y-57792619D02*
X126966666Y-57792619D01*
X126966666Y-57792619D02*
X127061904Y-57840238D01*
X127061904Y-57840238D02*
X127109523Y-57887857D01*
X127109523Y-57887857D02*
X127157142Y-57983095D01*
X127157142Y-57983095D02*
X127157142Y-58125952D01*
X127157142Y-58125952D02*
X127109523Y-58221190D01*
X127109523Y-58221190D02*
X127061904Y-58268809D01*
X127061904Y-58268809D02*
X126966666Y-58316428D01*
X126966666Y-58316428D02*
X126585714Y-58316428D01*
X128109523Y-58792619D02*
X127538095Y-58792619D01*
X127823809Y-58792619D02*
X127823809Y-57792619D01*
X127823809Y-57792619D02*
X127728571Y-57935476D01*
X127728571Y-57935476D02*
X127633333Y-58030714D01*
X127633333Y-58030714D02*
X127538095Y-58078333D01*
X128442857Y-57792619D02*
X129061904Y-57792619D01*
X129061904Y-57792619D02*
X128728571Y-58173571D01*
X128728571Y-58173571D02*
X128871428Y-58173571D01*
X128871428Y-58173571D02*
X128966666Y-58221190D01*
X128966666Y-58221190D02*
X129014285Y-58268809D01*
X129014285Y-58268809D02*
X129061904Y-58364047D01*
X129061904Y-58364047D02*
X129061904Y-58602142D01*
X129061904Y-58602142D02*
X129014285Y-58697380D01*
X129014285Y-58697380D02*
X128966666Y-58745000D01*
X128966666Y-58745000D02*
X128871428Y-58792619D01*
X128871428Y-58792619D02*
X128585714Y-58792619D01*
X128585714Y-58792619D02*
X128490476Y-58745000D01*
X128490476Y-58745000D02*
X128442857Y-58697380D01*
%TO.C,R1*%
X107883333Y-47762619D02*
X107550000Y-47286428D01*
X107311905Y-47762619D02*
X107311905Y-46762619D01*
X107311905Y-46762619D02*
X107692857Y-46762619D01*
X107692857Y-46762619D02*
X107788095Y-46810238D01*
X107788095Y-46810238D02*
X107835714Y-46857857D01*
X107835714Y-46857857D02*
X107883333Y-46953095D01*
X107883333Y-46953095D02*
X107883333Y-47095952D01*
X107883333Y-47095952D02*
X107835714Y-47191190D01*
X107835714Y-47191190D02*
X107788095Y-47238809D01*
X107788095Y-47238809D02*
X107692857Y-47286428D01*
X107692857Y-47286428D02*
X107311905Y-47286428D01*
X108835714Y-47762619D02*
X108264286Y-47762619D01*
X108550000Y-47762619D02*
X108550000Y-46762619D01*
X108550000Y-46762619D02*
X108454762Y-46905476D01*
X108454762Y-46905476D02*
X108359524Y-47000714D01*
X108359524Y-47000714D02*
X108264286Y-47048333D01*
%TO.C,R29*%
X167047142Y-51192619D02*
X166713809Y-50716428D01*
X166475714Y-51192619D02*
X166475714Y-50192619D01*
X166475714Y-50192619D02*
X166856666Y-50192619D01*
X166856666Y-50192619D02*
X166951904Y-50240238D01*
X166951904Y-50240238D02*
X166999523Y-50287857D01*
X166999523Y-50287857D02*
X167047142Y-50383095D01*
X167047142Y-50383095D02*
X167047142Y-50525952D01*
X167047142Y-50525952D02*
X166999523Y-50621190D01*
X166999523Y-50621190D02*
X166951904Y-50668809D01*
X166951904Y-50668809D02*
X166856666Y-50716428D01*
X166856666Y-50716428D02*
X166475714Y-50716428D01*
X167428095Y-50287857D02*
X167475714Y-50240238D01*
X167475714Y-50240238D02*
X167570952Y-50192619D01*
X167570952Y-50192619D02*
X167809047Y-50192619D01*
X167809047Y-50192619D02*
X167904285Y-50240238D01*
X167904285Y-50240238D02*
X167951904Y-50287857D01*
X167951904Y-50287857D02*
X167999523Y-50383095D01*
X167999523Y-50383095D02*
X167999523Y-50478333D01*
X167999523Y-50478333D02*
X167951904Y-50621190D01*
X167951904Y-50621190D02*
X167380476Y-51192619D01*
X167380476Y-51192619D02*
X167999523Y-51192619D01*
X168475714Y-51192619D02*
X168666190Y-51192619D01*
X168666190Y-51192619D02*
X168761428Y-51145000D01*
X168761428Y-51145000D02*
X168809047Y-51097380D01*
X168809047Y-51097380D02*
X168904285Y-50954523D01*
X168904285Y-50954523D02*
X168951904Y-50764047D01*
X168951904Y-50764047D02*
X168951904Y-50383095D01*
X168951904Y-50383095D02*
X168904285Y-50287857D01*
X168904285Y-50287857D02*
X168856666Y-50240238D01*
X168856666Y-50240238D02*
X168761428Y-50192619D01*
X168761428Y-50192619D02*
X168570952Y-50192619D01*
X168570952Y-50192619D02*
X168475714Y-50240238D01*
X168475714Y-50240238D02*
X168428095Y-50287857D01*
X168428095Y-50287857D02*
X168380476Y-50383095D01*
X168380476Y-50383095D02*
X168380476Y-50621190D01*
X168380476Y-50621190D02*
X168428095Y-50716428D01*
X168428095Y-50716428D02*
X168475714Y-50764047D01*
X168475714Y-50764047D02*
X168570952Y-50811666D01*
X168570952Y-50811666D02*
X168761428Y-50811666D01*
X168761428Y-50811666D02*
X168856666Y-50764047D01*
X168856666Y-50764047D02*
X168904285Y-50716428D01*
X168904285Y-50716428D02*
X168951904Y-50621190D01*
%TO.C,R36*%
X167147142Y-75092619D02*
X166813809Y-74616428D01*
X166575714Y-75092619D02*
X166575714Y-74092619D01*
X166575714Y-74092619D02*
X166956666Y-74092619D01*
X166956666Y-74092619D02*
X167051904Y-74140238D01*
X167051904Y-74140238D02*
X167099523Y-74187857D01*
X167099523Y-74187857D02*
X167147142Y-74283095D01*
X167147142Y-74283095D02*
X167147142Y-74425952D01*
X167147142Y-74425952D02*
X167099523Y-74521190D01*
X167099523Y-74521190D02*
X167051904Y-74568809D01*
X167051904Y-74568809D02*
X166956666Y-74616428D01*
X166956666Y-74616428D02*
X166575714Y-74616428D01*
X167480476Y-74092619D02*
X168099523Y-74092619D01*
X168099523Y-74092619D02*
X167766190Y-74473571D01*
X167766190Y-74473571D02*
X167909047Y-74473571D01*
X167909047Y-74473571D02*
X168004285Y-74521190D01*
X168004285Y-74521190D02*
X168051904Y-74568809D01*
X168051904Y-74568809D02*
X168099523Y-74664047D01*
X168099523Y-74664047D02*
X168099523Y-74902142D01*
X168099523Y-74902142D02*
X168051904Y-74997380D01*
X168051904Y-74997380D02*
X168004285Y-75045000D01*
X168004285Y-75045000D02*
X167909047Y-75092619D01*
X167909047Y-75092619D02*
X167623333Y-75092619D01*
X167623333Y-75092619D02*
X167528095Y-75045000D01*
X167528095Y-75045000D02*
X167480476Y-74997380D01*
X168956666Y-74092619D02*
X168766190Y-74092619D01*
X168766190Y-74092619D02*
X168670952Y-74140238D01*
X168670952Y-74140238D02*
X168623333Y-74187857D01*
X168623333Y-74187857D02*
X168528095Y-74330714D01*
X168528095Y-74330714D02*
X168480476Y-74521190D01*
X168480476Y-74521190D02*
X168480476Y-74902142D01*
X168480476Y-74902142D02*
X168528095Y-74997380D01*
X168528095Y-74997380D02*
X168575714Y-75045000D01*
X168575714Y-75045000D02*
X168670952Y-75092619D01*
X168670952Y-75092619D02*
X168861428Y-75092619D01*
X168861428Y-75092619D02*
X168956666Y-75045000D01*
X168956666Y-75045000D02*
X169004285Y-74997380D01*
X169004285Y-74997380D02*
X169051904Y-74902142D01*
X169051904Y-74902142D02*
X169051904Y-74664047D01*
X169051904Y-74664047D02*
X169004285Y-74568809D01*
X169004285Y-74568809D02*
X168956666Y-74521190D01*
X168956666Y-74521190D02*
X168861428Y-74473571D01*
X168861428Y-74473571D02*
X168670952Y-74473571D01*
X168670952Y-74473571D02*
X168575714Y-74521190D01*
X168575714Y-74521190D02*
X168528095Y-74568809D01*
X168528095Y-74568809D02*
X168480476Y-74664047D01*
%TO.C,R46*%
X112977142Y-77492619D02*
X112643809Y-77016428D01*
X112405714Y-77492619D02*
X112405714Y-76492619D01*
X112405714Y-76492619D02*
X112786666Y-76492619D01*
X112786666Y-76492619D02*
X112881904Y-76540238D01*
X112881904Y-76540238D02*
X112929523Y-76587857D01*
X112929523Y-76587857D02*
X112977142Y-76683095D01*
X112977142Y-76683095D02*
X112977142Y-76825952D01*
X112977142Y-76825952D02*
X112929523Y-76921190D01*
X112929523Y-76921190D02*
X112881904Y-76968809D01*
X112881904Y-76968809D02*
X112786666Y-77016428D01*
X112786666Y-77016428D02*
X112405714Y-77016428D01*
X113834285Y-76825952D02*
X113834285Y-77492619D01*
X113596190Y-76445000D02*
X113358095Y-77159285D01*
X113358095Y-77159285D02*
X113977142Y-77159285D01*
X114786666Y-76492619D02*
X114596190Y-76492619D01*
X114596190Y-76492619D02*
X114500952Y-76540238D01*
X114500952Y-76540238D02*
X114453333Y-76587857D01*
X114453333Y-76587857D02*
X114358095Y-76730714D01*
X114358095Y-76730714D02*
X114310476Y-76921190D01*
X114310476Y-76921190D02*
X114310476Y-77302142D01*
X114310476Y-77302142D02*
X114358095Y-77397380D01*
X114358095Y-77397380D02*
X114405714Y-77445000D01*
X114405714Y-77445000D02*
X114500952Y-77492619D01*
X114500952Y-77492619D02*
X114691428Y-77492619D01*
X114691428Y-77492619D02*
X114786666Y-77445000D01*
X114786666Y-77445000D02*
X114834285Y-77397380D01*
X114834285Y-77397380D02*
X114881904Y-77302142D01*
X114881904Y-77302142D02*
X114881904Y-77064047D01*
X114881904Y-77064047D02*
X114834285Y-76968809D01*
X114834285Y-76968809D02*
X114786666Y-76921190D01*
X114786666Y-76921190D02*
X114691428Y-76873571D01*
X114691428Y-76873571D02*
X114500952Y-76873571D01*
X114500952Y-76873571D02*
X114405714Y-76921190D01*
X114405714Y-76921190D02*
X114358095Y-76968809D01*
X114358095Y-76968809D02*
X114310476Y-77064047D01*
%TO.C,R63*%
X144547142Y-112092619D02*
X144213809Y-111616428D01*
X143975714Y-112092619D02*
X143975714Y-111092619D01*
X143975714Y-111092619D02*
X144356666Y-111092619D01*
X144356666Y-111092619D02*
X144451904Y-111140238D01*
X144451904Y-111140238D02*
X144499523Y-111187857D01*
X144499523Y-111187857D02*
X144547142Y-111283095D01*
X144547142Y-111283095D02*
X144547142Y-111425952D01*
X144547142Y-111425952D02*
X144499523Y-111521190D01*
X144499523Y-111521190D02*
X144451904Y-111568809D01*
X144451904Y-111568809D02*
X144356666Y-111616428D01*
X144356666Y-111616428D02*
X143975714Y-111616428D01*
X145404285Y-111092619D02*
X145213809Y-111092619D01*
X145213809Y-111092619D02*
X145118571Y-111140238D01*
X145118571Y-111140238D02*
X145070952Y-111187857D01*
X145070952Y-111187857D02*
X144975714Y-111330714D01*
X144975714Y-111330714D02*
X144928095Y-111521190D01*
X144928095Y-111521190D02*
X144928095Y-111902142D01*
X144928095Y-111902142D02*
X144975714Y-111997380D01*
X144975714Y-111997380D02*
X145023333Y-112045000D01*
X145023333Y-112045000D02*
X145118571Y-112092619D01*
X145118571Y-112092619D02*
X145309047Y-112092619D01*
X145309047Y-112092619D02*
X145404285Y-112045000D01*
X145404285Y-112045000D02*
X145451904Y-111997380D01*
X145451904Y-111997380D02*
X145499523Y-111902142D01*
X145499523Y-111902142D02*
X145499523Y-111664047D01*
X145499523Y-111664047D02*
X145451904Y-111568809D01*
X145451904Y-111568809D02*
X145404285Y-111521190D01*
X145404285Y-111521190D02*
X145309047Y-111473571D01*
X145309047Y-111473571D02*
X145118571Y-111473571D01*
X145118571Y-111473571D02*
X145023333Y-111521190D01*
X145023333Y-111521190D02*
X144975714Y-111568809D01*
X144975714Y-111568809D02*
X144928095Y-111664047D01*
X145832857Y-111092619D02*
X146451904Y-111092619D01*
X146451904Y-111092619D02*
X146118571Y-111473571D01*
X146118571Y-111473571D02*
X146261428Y-111473571D01*
X146261428Y-111473571D02*
X146356666Y-111521190D01*
X146356666Y-111521190D02*
X146404285Y-111568809D01*
X146404285Y-111568809D02*
X146451904Y-111664047D01*
X146451904Y-111664047D02*
X146451904Y-111902142D01*
X146451904Y-111902142D02*
X146404285Y-111997380D01*
X146404285Y-111997380D02*
X146356666Y-112045000D01*
X146356666Y-112045000D02*
X146261428Y-112092619D01*
X146261428Y-112092619D02*
X145975714Y-112092619D01*
X145975714Y-112092619D02*
X145880476Y-112045000D01*
X145880476Y-112045000D02*
X145832857Y-111997380D01*
%TO.C,R28*%
X167037142Y-47767619D02*
X166703809Y-47291428D01*
X166465714Y-47767619D02*
X166465714Y-46767619D01*
X166465714Y-46767619D02*
X166846666Y-46767619D01*
X166846666Y-46767619D02*
X166941904Y-46815238D01*
X166941904Y-46815238D02*
X166989523Y-46862857D01*
X166989523Y-46862857D02*
X167037142Y-46958095D01*
X167037142Y-46958095D02*
X167037142Y-47100952D01*
X167037142Y-47100952D02*
X166989523Y-47196190D01*
X166989523Y-47196190D02*
X166941904Y-47243809D01*
X166941904Y-47243809D02*
X166846666Y-47291428D01*
X166846666Y-47291428D02*
X166465714Y-47291428D01*
X167418095Y-46862857D02*
X167465714Y-46815238D01*
X167465714Y-46815238D02*
X167560952Y-46767619D01*
X167560952Y-46767619D02*
X167799047Y-46767619D01*
X167799047Y-46767619D02*
X167894285Y-46815238D01*
X167894285Y-46815238D02*
X167941904Y-46862857D01*
X167941904Y-46862857D02*
X167989523Y-46958095D01*
X167989523Y-46958095D02*
X167989523Y-47053333D01*
X167989523Y-47053333D02*
X167941904Y-47196190D01*
X167941904Y-47196190D02*
X167370476Y-47767619D01*
X167370476Y-47767619D02*
X167989523Y-47767619D01*
X168560952Y-47196190D02*
X168465714Y-47148571D01*
X168465714Y-47148571D02*
X168418095Y-47100952D01*
X168418095Y-47100952D02*
X168370476Y-47005714D01*
X168370476Y-47005714D02*
X168370476Y-46958095D01*
X168370476Y-46958095D02*
X168418095Y-46862857D01*
X168418095Y-46862857D02*
X168465714Y-46815238D01*
X168465714Y-46815238D02*
X168560952Y-46767619D01*
X168560952Y-46767619D02*
X168751428Y-46767619D01*
X168751428Y-46767619D02*
X168846666Y-46815238D01*
X168846666Y-46815238D02*
X168894285Y-46862857D01*
X168894285Y-46862857D02*
X168941904Y-46958095D01*
X168941904Y-46958095D02*
X168941904Y-47005714D01*
X168941904Y-47005714D02*
X168894285Y-47100952D01*
X168894285Y-47100952D02*
X168846666Y-47148571D01*
X168846666Y-47148571D02*
X168751428Y-47196190D01*
X168751428Y-47196190D02*
X168560952Y-47196190D01*
X168560952Y-47196190D02*
X168465714Y-47243809D01*
X168465714Y-47243809D02*
X168418095Y-47291428D01*
X168418095Y-47291428D02*
X168370476Y-47386666D01*
X168370476Y-47386666D02*
X168370476Y-47577142D01*
X168370476Y-47577142D02*
X168418095Y-47672380D01*
X168418095Y-47672380D02*
X168465714Y-47720000D01*
X168465714Y-47720000D02*
X168560952Y-47767619D01*
X168560952Y-47767619D02*
X168751428Y-47767619D01*
X168751428Y-47767619D02*
X168846666Y-47720000D01*
X168846666Y-47720000D02*
X168894285Y-47672380D01*
X168894285Y-47672380D02*
X168941904Y-47577142D01*
X168941904Y-47577142D02*
X168941904Y-47386666D01*
X168941904Y-47386666D02*
X168894285Y-47291428D01*
X168894285Y-47291428D02*
X168846666Y-47243809D01*
X168846666Y-47243809D02*
X168751428Y-47196190D01*
%TO.C,R56*%
X144447142Y-88192619D02*
X144113809Y-87716428D01*
X143875714Y-88192619D02*
X143875714Y-87192619D01*
X143875714Y-87192619D02*
X144256666Y-87192619D01*
X144256666Y-87192619D02*
X144351904Y-87240238D01*
X144351904Y-87240238D02*
X144399523Y-87287857D01*
X144399523Y-87287857D02*
X144447142Y-87383095D01*
X144447142Y-87383095D02*
X144447142Y-87525952D01*
X144447142Y-87525952D02*
X144399523Y-87621190D01*
X144399523Y-87621190D02*
X144351904Y-87668809D01*
X144351904Y-87668809D02*
X144256666Y-87716428D01*
X144256666Y-87716428D02*
X143875714Y-87716428D01*
X145351904Y-87192619D02*
X144875714Y-87192619D01*
X144875714Y-87192619D02*
X144828095Y-87668809D01*
X144828095Y-87668809D02*
X144875714Y-87621190D01*
X144875714Y-87621190D02*
X144970952Y-87573571D01*
X144970952Y-87573571D02*
X145209047Y-87573571D01*
X145209047Y-87573571D02*
X145304285Y-87621190D01*
X145304285Y-87621190D02*
X145351904Y-87668809D01*
X145351904Y-87668809D02*
X145399523Y-87764047D01*
X145399523Y-87764047D02*
X145399523Y-88002142D01*
X145399523Y-88002142D02*
X145351904Y-88097380D01*
X145351904Y-88097380D02*
X145304285Y-88145000D01*
X145304285Y-88145000D02*
X145209047Y-88192619D01*
X145209047Y-88192619D02*
X144970952Y-88192619D01*
X144970952Y-88192619D02*
X144875714Y-88145000D01*
X144875714Y-88145000D02*
X144828095Y-88097380D01*
X146256666Y-87192619D02*
X146066190Y-87192619D01*
X146066190Y-87192619D02*
X145970952Y-87240238D01*
X145970952Y-87240238D02*
X145923333Y-87287857D01*
X145923333Y-87287857D02*
X145828095Y-87430714D01*
X145828095Y-87430714D02*
X145780476Y-87621190D01*
X145780476Y-87621190D02*
X145780476Y-88002142D01*
X145780476Y-88002142D02*
X145828095Y-88097380D01*
X145828095Y-88097380D02*
X145875714Y-88145000D01*
X145875714Y-88145000D02*
X145970952Y-88192619D01*
X145970952Y-88192619D02*
X146161428Y-88192619D01*
X146161428Y-88192619D02*
X146256666Y-88145000D01*
X146256666Y-88145000D02*
X146304285Y-88097380D01*
X146304285Y-88097380D02*
X146351904Y-88002142D01*
X146351904Y-88002142D02*
X146351904Y-87764047D01*
X146351904Y-87764047D02*
X146304285Y-87668809D01*
X146304285Y-87668809D02*
X146256666Y-87621190D01*
X146256666Y-87621190D02*
X146161428Y-87573571D01*
X146161428Y-87573571D02*
X145970952Y-87573571D01*
X145970952Y-87573571D02*
X145875714Y-87621190D01*
X145875714Y-87621190D02*
X145828095Y-87668809D01*
X145828095Y-87668809D02*
X145780476Y-87764047D01*
%TO.C,R2*%
X107883333Y-50992619D02*
X107550000Y-50516428D01*
X107311905Y-50992619D02*
X107311905Y-49992619D01*
X107311905Y-49992619D02*
X107692857Y-49992619D01*
X107692857Y-49992619D02*
X107788095Y-50040238D01*
X107788095Y-50040238D02*
X107835714Y-50087857D01*
X107835714Y-50087857D02*
X107883333Y-50183095D01*
X107883333Y-50183095D02*
X107883333Y-50325952D01*
X107883333Y-50325952D02*
X107835714Y-50421190D01*
X107835714Y-50421190D02*
X107788095Y-50468809D01*
X107788095Y-50468809D02*
X107692857Y-50516428D01*
X107692857Y-50516428D02*
X107311905Y-50516428D01*
X108264286Y-50087857D02*
X108311905Y-50040238D01*
X108311905Y-50040238D02*
X108407143Y-49992619D01*
X108407143Y-49992619D02*
X108645238Y-49992619D01*
X108645238Y-49992619D02*
X108740476Y-50040238D01*
X108740476Y-50040238D02*
X108788095Y-50087857D01*
X108788095Y-50087857D02*
X108835714Y-50183095D01*
X108835714Y-50183095D02*
X108835714Y-50278333D01*
X108835714Y-50278333D02*
X108788095Y-50421190D01*
X108788095Y-50421190D02*
X108216667Y-50992619D01*
X108216667Y-50992619D02*
X108835714Y-50992619D01*
%TO.C,R4*%
X107883333Y-57792619D02*
X107550000Y-57316428D01*
X107311905Y-57792619D02*
X107311905Y-56792619D01*
X107311905Y-56792619D02*
X107692857Y-56792619D01*
X107692857Y-56792619D02*
X107788095Y-56840238D01*
X107788095Y-56840238D02*
X107835714Y-56887857D01*
X107835714Y-56887857D02*
X107883333Y-56983095D01*
X107883333Y-56983095D02*
X107883333Y-57125952D01*
X107883333Y-57125952D02*
X107835714Y-57221190D01*
X107835714Y-57221190D02*
X107788095Y-57268809D01*
X107788095Y-57268809D02*
X107692857Y-57316428D01*
X107692857Y-57316428D02*
X107311905Y-57316428D01*
X108740476Y-57125952D02*
X108740476Y-57792619D01*
X108502381Y-56745000D02*
X108264286Y-57459285D01*
X108264286Y-57459285D02*
X108883333Y-57459285D01*
%TO.C,R32*%
X167047142Y-61692619D02*
X166713809Y-61216428D01*
X166475714Y-61692619D02*
X166475714Y-60692619D01*
X166475714Y-60692619D02*
X166856666Y-60692619D01*
X166856666Y-60692619D02*
X166951904Y-60740238D01*
X166951904Y-60740238D02*
X166999523Y-60787857D01*
X166999523Y-60787857D02*
X167047142Y-60883095D01*
X167047142Y-60883095D02*
X167047142Y-61025952D01*
X167047142Y-61025952D02*
X166999523Y-61121190D01*
X166999523Y-61121190D02*
X166951904Y-61168809D01*
X166951904Y-61168809D02*
X166856666Y-61216428D01*
X166856666Y-61216428D02*
X166475714Y-61216428D01*
X167380476Y-60692619D02*
X167999523Y-60692619D01*
X167999523Y-60692619D02*
X167666190Y-61073571D01*
X167666190Y-61073571D02*
X167809047Y-61073571D01*
X167809047Y-61073571D02*
X167904285Y-61121190D01*
X167904285Y-61121190D02*
X167951904Y-61168809D01*
X167951904Y-61168809D02*
X167999523Y-61264047D01*
X167999523Y-61264047D02*
X167999523Y-61502142D01*
X167999523Y-61502142D02*
X167951904Y-61597380D01*
X167951904Y-61597380D02*
X167904285Y-61645000D01*
X167904285Y-61645000D02*
X167809047Y-61692619D01*
X167809047Y-61692619D02*
X167523333Y-61692619D01*
X167523333Y-61692619D02*
X167428095Y-61645000D01*
X167428095Y-61645000D02*
X167380476Y-61597380D01*
X168380476Y-60787857D02*
X168428095Y-60740238D01*
X168428095Y-60740238D02*
X168523333Y-60692619D01*
X168523333Y-60692619D02*
X168761428Y-60692619D01*
X168761428Y-60692619D02*
X168856666Y-60740238D01*
X168856666Y-60740238D02*
X168904285Y-60787857D01*
X168904285Y-60787857D02*
X168951904Y-60883095D01*
X168951904Y-60883095D02*
X168951904Y-60978333D01*
X168951904Y-60978333D02*
X168904285Y-61121190D01*
X168904285Y-61121190D02*
X168332857Y-61692619D01*
X168332857Y-61692619D02*
X168951904Y-61692619D01*
%TO.C,R58*%
X144472142Y-95092619D02*
X144138809Y-94616428D01*
X143900714Y-95092619D02*
X143900714Y-94092619D01*
X143900714Y-94092619D02*
X144281666Y-94092619D01*
X144281666Y-94092619D02*
X144376904Y-94140238D01*
X144376904Y-94140238D02*
X144424523Y-94187857D01*
X144424523Y-94187857D02*
X144472142Y-94283095D01*
X144472142Y-94283095D02*
X144472142Y-94425952D01*
X144472142Y-94425952D02*
X144424523Y-94521190D01*
X144424523Y-94521190D02*
X144376904Y-94568809D01*
X144376904Y-94568809D02*
X144281666Y-94616428D01*
X144281666Y-94616428D02*
X143900714Y-94616428D01*
X145376904Y-94092619D02*
X144900714Y-94092619D01*
X144900714Y-94092619D02*
X144853095Y-94568809D01*
X144853095Y-94568809D02*
X144900714Y-94521190D01*
X144900714Y-94521190D02*
X144995952Y-94473571D01*
X144995952Y-94473571D02*
X145234047Y-94473571D01*
X145234047Y-94473571D02*
X145329285Y-94521190D01*
X145329285Y-94521190D02*
X145376904Y-94568809D01*
X145376904Y-94568809D02*
X145424523Y-94664047D01*
X145424523Y-94664047D02*
X145424523Y-94902142D01*
X145424523Y-94902142D02*
X145376904Y-94997380D01*
X145376904Y-94997380D02*
X145329285Y-95045000D01*
X145329285Y-95045000D02*
X145234047Y-95092619D01*
X145234047Y-95092619D02*
X144995952Y-95092619D01*
X144995952Y-95092619D02*
X144900714Y-95045000D01*
X144900714Y-95045000D02*
X144853095Y-94997380D01*
X145995952Y-94521190D02*
X145900714Y-94473571D01*
X145900714Y-94473571D02*
X145853095Y-94425952D01*
X145853095Y-94425952D02*
X145805476Y-94330714D01*
X145805476Y-94330714D02*
X145805476Y-94283095D01*
X145805476Y-94283095D02*
X145853095Y-94187857D01*
X145853095Y-94187857D02*
X145900714Y-94140238D01*
X145900714Y-94140238D02*
X145995952Y-94092619D01*
X145995952Y-94092619D02*
X146186428Y-94092619D01*
X146186428Y-94092619D02*
X146281666Y-94140238D01*
X146281666Y-94140238D02*
X146329285Y-94187857D01*
X146329285Y-94187857D02*
X146376904Y-94283095D01*
X146376904Y-94283095D02*
X146376904Y-94330714D01*
X146376904Y-94330714D02*
X146329285Y-94425952D01*
X146329285Y-94425952D02*
X146281666Y-94473571D01*
X146281666Y-94473571D02*
X146186428Y-94521190D01*
X146186428Y-94521190D02*
X145995952Y-94521190D01*
X145995952Y-94521190D02*
X145900714Y-94568809D01*
X145900714Y-94568809D02*
X145853095Y-94616428D01*
X145853095Y-94616428D02*
X145805476Y-94711666D01*
X145805476Y-94711666D02*
X145805476Y-94902142D01*
X145805476Y-94902142D02*
X145853095Y-94997380D01*
X145853095Y-94997380D02*
X145900714Y-95045000D01*
X145900714Y-95045000D02*
X145995952Y-95092619D01*
X145995952Y-95092619D02*
X146186428Y-95092619D01*
X146186428Y-95092619D02*
X146281666Y-95045000D01*
X146281666Y-95045000D02*
X146329285Y-94997380D01*
X146329285Y-94997380D02*
X146376904Y-94902142D01*
X146376904Y-94902142D02*
X146376904Y-94711666D01*
X146376904Y-94711666D02*
X146329285Y-94616428D01*
X146329285Y-94616428D02*
X146281666Y-94568809D01*
X146281666Y-94568809D02*
X146186428Y-94521190D01*
%TO.C,R19*%
X145807142Y-46717619D02*
X145473809Y-46241428D01*
X145235714Y-46717619D02*
X145235714Y-45717619D01*
X145235714Y-45717619D02*
X145616666Y-45717619D01*
X145616666Y-45717619D02*
X145711904Y-45765238D01*
X145711904Y-45765238D02*
X145759523Y-45812857D01*
X145759523Y-45812857D02*
X145807142Y-45908095D01*
X145807142Y-45908095D02*
X145807142Y-46050952D01*
X145807142Y-46050952D02*
X145759523Y-46146190D01*
X145759523Y-46146190D02*
X145711904Y-46193809D01*
X145711904Y-46193809D02*
X145616666Y-46241428D01*
X145616666Y-46241428D02*
X145235714Y-46241428D01*
X146759523Y-46717619D02*
X146188095Y-46717619D01*
X146473809Y-46717619D02*
X146473809Y-45717619D01*
X146473809Y-45717619D02*
X146378571Y-45860476D01*
X146378571Y-45860476D02*
X146283333Y-45955714D01*
X146283333Y-45955714D02*
X146188095Y-46003333D01*
X147235714Y-46717619D02*
X147426190Y-46717619D01*
X147426190Y-46717619D02*
X147521428Y-46670000D01*
X147521428Y-46670000D02*
X147569047Y-46622380D01*
X147569047Y-46622380D02*
X147664285Y-46479523D01*
X147664285Y-46479523D02*
X147711904Y-46289047D01*
X147711904Y-46289047D02*
X147711904Y-45908095D01*
X147711904Y-45908095D02*
X147664285Y-45812857D01*
X147664285Y-45812857D02*
X147616666Y-45765238D01*
X147616666Y-45765238D02*
X147521428Y-45717619D01*
X147521428Y-45717619D02*
X147330952Y-45717619D01*
X147330952Y-45717619D02*
X147235714Y-45765238D01*
X147235714Y-45765238D02*
X147188095Y-45812857D01*
X147188095Y-45812857D02*
X147140476Y-45908095D01*
X147140476Y-45908095D02*
X147140476Y-46146190D01*
X147140476Y-46146190D02*
X147188095Y-46241428D01*
X147188095Y-46241428D02*
X147235714Y-46289047D01*
X147235714Y-46289047D02*
X147330952Y-46336666D01*
X147330952Y-46336666D02*
X147521428Y-46336666D01*
X147521428Y-46336666D02*
X147616666Y-46289047D01*
X147616666Y-46289047D02*
X147664285Y-46241428D01*
X147664285Y-46241428D02*
X147711904Y-46146190D01*
%TO.C,R6*%
X107823333Y-64592619D02*
X107490000Y-64116428D01*
X107251905Y-64592619D02*
X107251905Y-63592619D01*
X107251905Y-63592619D02*
X107632857Y-63592619D01*
X107632857Y-63592619D02*
X107728095Y-63640238D01*
X107728095Y-63640238D02*
X107775714Y-63687857D01*
X107775714Y-63687857D02*
X107823333Y-63783095D01*
X107823333Y-63783095D02*
X107823333Y-63925952D01*
X107823333Y-63925952D02*
X107775714Y-64021190D01*
X107775714Y-64021190D02*
X107728095Y-64068809D01*
X107728095Y-64068809D02*
X107632857Y-64116428D01*
X107632857Y-64116428D02*
X107251905Y-64116428D01*
X108680476Y-63592619D02*
X108490000Y-63592619D01*
X108490000Y-63592619D02*
X108394762Y-63640238D01*
X108394762Y-63640238D02*
X108347143Y-63687857D01*
X108347143Y-63687857D02*
X108251905Y-63830714D01*
X108251905Y-63830714D02*
X108204286Y-64021190D01*
X108204286Y-64021190D02*
X108204286Y-64402142D01*
X108204286Y-64402142D02*
X108251905Y-64497380D01*
X108251905Y-64497380D02*
X108299524Y-64545000D01*
X108299524Y-64545000D02*
X108394762Y-64592619D01*
X108394762Y-64592619D02*
X108585238Y-64592619D01*
X108585238Y-64592619D02*
X108680476Y-64545000D01*
X108680476Y-64545000D02*
X108728095Y-64497380D01*
X108728095Y-64497380D02*
X108775714Y-64402142D01*
X108775714Y-64402142D02*
X108775714Y-64164047D01*
X108775714Y-64164047D02*
X108728095Y-64068809D01*
X108728095Y-64068809D02*
X108680476Y-64021190D01*
X108680476Y-64021190D02*
X108585238Y-63973571D01*
X108585238Y-63973571D02*
X108394762Y-63973571D01*
X108394762Y-63973571D02*
X108299524Y-64021190D01*
X108299524Y-64021190D02*
X108251905Y-64068809D01*
X108251905Y-64068809D02*
X108204286Y-64164047D01*
%TO.C,R24*%
X145947142Y-64342619D02*
X145613809Y-63866428D01*
X145375714Y-64342619D02*
X145375714Y-63342619D01*
X145375714Y-63342619D02*
X145756666Y-63342619D01*
X145756666Y-63342619D02*
X145851904Y-63390238D01*
X145851904Y-63390238D02*
X145899523Y-63437857D01*
X145899523Y-63437857D02*
X145947142Y-63533095D01*
X145947142Y-63533095D02*
X145947142Y-63675952D01*
X145947142Y-63675952D02*
X145899523Y-63771190D01*
X145899523Y-63771190D02*
X145851904Y-63818809D01*
X145851904Y-63818809D02*
X145756666Y-63866428D01*
X145756666Y-63866428D02*
X145375714Y-63866428D01*
X146328095Y-63437857D02*
X146375714Y-63390238D01*
X146375714Y-63390238D02*
X146470952Y-63342619D01*
X146470952Y-63342619D02*
X146709047Y-63342619D01*
X146709047Y-63342619D02*
X146804285Y-63390238D01*
X146804285Y-63390238D02*
X146851904Y-63437857D01*
X146851904Y-63437857D02*
X146899523Y-63533095D01*
X146899523Y-63533095D02*
X146899523Y-63628333D01*
X146899523Y-63628333D02*
X146851904Y-63771190D01*
X146851904Y-63771190D02*
X146280476Y-64342619D01*
X146280476Y-64342619D02*
X146899523Y-64342619D01*
X147756666Y-63675952D02*
X147756666Y-64342619D01*
X147518571Y-63295000D02*
X147280476Y-64009285D01*
X147280476Y-64009285D02*
X147899523Y-64009285D01*
%TO.C,R57*%
X144447142Y-91592619D02*
X144113809Y-91116428D01*
X143875714Y-91592619D02*
X143875714Y-90592619D01*
X143875714Y-90592619D02*
X144256666Y-90592619D01*
X144256666Y-90592619D02*
X144351904Y-90640238D01*
X144351904Y-90640238D02*
X144399523Y-90687857D01*
X144399523Y-90687857D02*
X144447142Y-90783095D01*
X144447142Y-90783095D02*
X144447142Y-90925952D01*
X144447142Y-90925952D02*
X144399523Y-91021190D01*
X144399523Y-91021190D02*
X144351904Y-91068809D01*
X144351904Y-91068809D02*
X144256666Y-91116428D01*
X144256666Y-91116428D02*
X143875714Y-91116428D01*
X145351904Y-90592619D02*
X144875714Y-90592619D01*
X144875714Y-90592619D02*
X144828095Y-91068809D01*
X144828095Y-91068809D02*
X144875714Y-91021190D01*
X144875714Y-91021190D02*
X144970952Y-90973571D01*
X144970952Y-90973571D02*
X145209047Y-90973571D01*
X145209047Y-90973571D02*
X145304285Y-91021190D01*
X145304285Y-91021190D02*
X145351904Y-91068809D01*
X145351904Y-91068809D02*
X145399523Y-91164047D01*
X145399523Y-91164047D02*
X145399523Y-91402142D01*
X145399523Y-91402142D02*
X145351904Y-91497380D01*
X145351904Y-91497380D02*
X145304285Y-91545000D01*
X145304285Y-91545000D02*
X145209047Y-91592619D01*
X145209047Y-91592619D02*
X144970952Y-91592619D01*
X144970952Y-91592619D02*
X144875714Y-91545000D01*
X144875714Y-91545000D02*
X144828095Y-91497380D01*
X145732857Y-90592619D02*
X146399523Y-90592619D01*
X146399523Y-90592619D02*
X145970952Y-91592619D01*
%TO.C,J1*%
X172722619Y-87233333D02*
X173436904Y-87233333D01*
X173436904Y-87233333D02*
X173579761Y-87280952D01*
X173579761Y-87280952D02*
X173675000Y-87376190D01*
X173675000Y-87376190D02*
X173722619Y-87519047D01*
X173722619Y-87519047D02*
X173722619Y-87614285D01*
X173722619Y-86233333D02*
X173722619Y-86804761D01*
X173722619Y-86519047D02*
X172722619Y-86519047D01*
X172722619Y-86519047D02*
X172865476Y-86614285D01*
X172865476Y-86614285D02*
X172960714Y-86709523D01*
X172960714Y-86709523D02*
X173008333Y-86804761D01*
%TO.C,R7*%
X107823333Y-67792619D02*
X107490000Y-67316428D01*
X107251905Y-67792619D02*
X107251905Y-66792619D01*
X107251905Y-66792619D02*
X107632857Y-66792619D01*
X107632857Y-66792619D02*
X107728095Y-66840238D01*
X107728095Y-66840238D02*
X107775714Y-66887857D01*
X107775714Y-66887857D02*
X107823333Y-66983095D01*
X107823333Y-66983095D02*
X107823333Y-67125952D01*
X107823333Y-67125952D02*
X107775714Y-67221190D01*
X107775714Y-67221190D02*
X107728095Y-67268809D01*
X107728095Y-67268809D02*
X107632857Y-67316428D01*
X107632857Y-67316428D02*
X107251905Y-67316428D01*
X108156667Y-66792619D02*
X108823333Y-66792619D01*
X108823333Y-66792619D02*
X108394762Y-67792619D01*
%TO.C,R59*%
X144447142Y-98492619D02*
X144113809Y-98016428D01*
X143875714Y-98492619D02*
X143875714Y-97492619D01*
X143875714Y-97492619D02*
X144256666Y-97492619D01*
X144256666Y-97492619D02*
X144351904Y-97540238D01*
X144351904Y-97540238D02*
X144399523Y-97587857D01*
X144399523Y-97587857D02*
X144447142Y-97683095D01*
X144447142Y-97683095D02*
X144447142Y-97825952D01*
X144447142Y-97825952D02*
X144399523Y-97921190D01*
X144399523Y-97921190D02*
X144351904Y-97968809D01*
X144351904Y-97968809D02*
X144256666Y-98016428D01*
X144256666Y-98016428D02*
X143875714Y-98016428D01*
X145351904Y-97492619D02*
X144875714Y-97492619D01*
X144875714Y-97492619D02*
X144828095Y-97968809D01*
X144828095Y-97968809D02*
X144875714Y-97921190D01*
X144875714Y-97921190D02*
X144970952Y-97873571D01*
X144970952Y-97873571D02*
X145209047Y-97873571D01*
X145209047Y-97873571D02*
X145304285Y-97921190D01*
X145304285Y-97921190D02*
X145351904Y-97968809D01*
X145351904Y-97968809D02*
X145399523Y-98064047D01*
X145399523Y-98064047D02*
X145399523Y-98302142D01*
X145399523Y-98302142D02*
X145351904Y-98397380D01*
X145351904Y-98397380D02*
X145304285Y-98445000D01*
X145304285Y-98445000D02*
X145209047Y-98492619D01*
X145209047Y-98492619D02*
X144970952Y-98492619D01*
X144970952Y-98492619D02*
X144875714Y-98445000D01*
X144875714Y-98445000D02*
X144828095Y-98397380D01*
X145875714Y-98492619D02*
X146066190Y-98492619D01*
X146066190Y-98492619D02*
X146161428Y-98445000D01*
X146161428Y-98445000D02*
X146209047Y-98397380D01*
X146209047Y-98397380D02*
X146304285Y-98254523D01*
X146304285Y-98254523D02*
X146351904Y-98064047D01*
X146351904Y-98064047D02*
X146351904Y-97683095D01*
X146351904Y-97683095D02*
X146304285Y-97587857D01*
X146304285Y-97587857D02*
X146256666Y-97540238D01*
X146256666Y-97540238D02*
X146161428Y-97492619D01*
X146161428Y-97492619D02*
X145970952Y-97492619D01*
X145970952Y-97492619D02*
X145875714Y-97540238D01*
X145875714Y-97540238D02*
X145828095Y-97587857D01*
X145828095Y-97587857D02*
X145780476Y-97683095D01*
X145780476Y-97683095D02*
X145780476Y-97921190D01*
X145780476Y-97921190D02*
X145828095Y-98016428D01*
X145828095Y-98016428D02*
X145875714Y-98064047D01*
X145875714Y-98064047D02*
X145970952Y-98111666D01*
X145970952Y-98111666D02*
X146161428Y-98111666D01*
X146161428Y-98111666D02*
X146256666Y-98064047D01*
X146256666Y-98064047D02*
X146304285Y-98016428D01*
X146304285Y-98016428D02*
X146351904Y-97921190D01*
%TO.C,R39*%
X157197142Y-83972619D02*
X156863809Y-83496428D01*
X156625714Y-83972619D02*
X156625714Y-82972619D01*
X156625714Y-82972619D02*
X157006666Y-82972619D01*
X157006666Y-82972619D02*
X157101904Y-83020238D01*
X157101904Y-83020238D02*
X157149523Y-83067857D01*
X157149523Y-83067857D02*
X157197142Y-83163095D01*
X157197142Y-83163095D02*
X157197142Y-83305952D01*
X157197142Y-83305952D02*
X157149523Y-83401190D01*
X157149523Y-83401190D02*
X157101904Y-83448809D01*
X157101904Y-83448809D02*
X157006666Y-83496428D01*
X157006666Y-83496428D02*
X156625714Y-83496428D01*
X157530476Y-82972619D02*
X158149523Y-82972619D01*
X158149523Y-82972619D02*
X157816190Y-83353571D01*
X157816190Y-83353571D02*
X157959047Y-83353571D01*
X157959047Y-83353571D02*
X158054285Y-83401190D01*
X158054285Y-83401190D02*
X158101904Y-83448809D01*
X158101904Y-83448809D02*
X158149523Y-83544047D01*
X158149523Y-83544047D02*
X158149523Y-83782142D01*
X158149523Y-83782142D02*
X158101904Y-83877380D01*
X158101904Y-83877380D02*
X158054285Y-83925000D01*
X158054285Y-83925000D02*
X157959047Y-83972619D01*
X157959047Y-83972619D02*
X157673333Y-83972619D01*
X157673333Y-83972619D02*
X157578095Y-83925000D01*
X157578095Y-83925000D02*
X157530476Y-83877380D01*
X158625714Y-83972619D02*
X158816190Y-83972619D01*
X158816190Y-83972619D02*
X158911428Y-83925000D01*
X158911428Y-83925000D02*
X158959047Y-83877380D01*
X158959047Y-83877380D02*
X159054285Y-83734523D01*
X159054285Y-83734523D02*
X159101904Y-83544047D01*
X159101904Y-83544047D02*
X159101904Y-83163095D01*
X159101904Y-83163095D02*
X159054285Y-83067857D01*
X159054285Y-83067857D02*
X159006666Y-83020238D01*
X159006666Y-83020238D02*
X158911428Y-82972619D01*
X158911428Y-82972619D02*
X158720952Y-82972619D01*
X158720952Y-82972619D02*
X158625714Y-83020238D01*
X158625714Y-83020238D02*
X158578095Y-83067857D01*
X158578095Y-83067857D02*
X158530476Y-83163095D01*
X158530476Y-83163095D02*
X158530476Y-83401190D01*
X158530476Y-83401190D02*
X158578095Y-83496428D01*
X158578095Y-83496428D02*
X158625714Y-83544047D01*
X158625714Y-83544047D02*
X158720952Y-83591666D01*
X158720952Y-83591666D02*
X158911428Y-83591666D01*
X158911428Y-83591666D02*
X159006666Y-83544047D01*
X159006666Y-83544047D02*
X159054285Y-83496428D01*
X159054285Y-83496428D02*
X159101904Y-83401190D01*
%TO.C,R37*%
X99997142Y-84902619D02*
X99663809Y-84426428D01*
X99425714Y-84902619D02*
X99425714Y-83902619D01*
X99425714Y-83902619D02*
X99806666Y-83902619D01*
X99806666Y-83902619D02*
X99901904Y-83950238D01*
X99901904Y-83950238D02*
X99949523Y-83997857D01*
X99949523Y-83997857D02*
X99997142Y-84093095D01*
X99997142Y-84093095D02*
X99997142Y-84235952D01*
X99997142Y-84235952D02*
X99949523Y-84331190D01*
X99949523Y-84331190D02*
X99901904Y-84378809D01*
X99901904Y-84378809D02*
X99806666Y-84426428D01*
X99806666Y-84426428D02*
X99425714Y-84426428D01*
X100330476Y-83902619D02*
X100949523Y-83902619D01*
X100949523Y-83902619D02*
X100616190Y-84283571D01*
X100616190Y-84283571D02*
X100759047Y-84283571D01*
X100759047Y-84283571D02*
X100854285Y-84331190D01*
X100854285Y-84331190D02*
X100901904Y-84378809D01*
X100901904Y-84378809D02*
X100949523Y-84474047D01*
X100949523Y-84474047D02*
X100949523Y-84712142D01*
X100949523Y-84712142D02*
X100901904Y-84807380D01*
X100901904Y-84807380D02*
X100854285Y-84855000D01*
X100854285Y-84855000D02*
X100759047Y-84902619D01*
X100759047Y-84902619D02*
X100473333Y-84902619D01*
X100473333Y-84902619D02*
X100378095Y-84855000D01*
X100378095Y-84855000D02*
X100330476Y-84807380D01*
X101282857Y-83902619D02*
X101949523Y-83902619D01*
X101949523Y-83902619D02*
X101520952Y-84902619D01*
%TO.C,R17*%
X127257142Y-73492619D02*
X126923809Y-73016428D01*
X126685714Y-73492619D02*
X126685714Y-72492619D01*
X126685714Y-72492619D02*
X127066666Y-72492619D01*
X127066666Y-72492619D02*
X127161904Y-72540238D01*
X127161904Y-72540238D02*
X127209523Y-72587857D01*
X127209523Y-72587857D02*
X127257142Y-72683095D01*
X127257142Y-72683095D02*
X127257142Y-72825952D01*
X127257142Y-72825952D02*
X127209523Y-72921190D01*
X127209523Y-72921190D02*
X127161904Y-72968809D01*
X127161904Y-72968809D02*
X127066666Y-73016428D01*
X127066666Y-73016428D02*
X126685714Y-73016428D01*
X128209523Y-73492619D02*
X127638095Y-73492619D01*
X127923809Y-73492619D02*
X127923809Y-72492619D01*
X127923809Y-72492619D02*
X127828571Y-72635476D01*
X127828571Y-72635476D02*
X127733333Y-72730714D01*
X127733333Y-72730714D02*
X127638095Y-72778333D01*
X128542857Y-72492619D02*
X129209523Y-72492619D01*
X129209523Y-72492619D02*
X128780952Y-73492619D01*
%TO.C,R33*%
X167047142Y-65092619D02*
X166713809Y-64616428D01*
X166475714Y-65092619D02*
X166475714Y-64092619D01*
X166475714Y-64092619D02*
X166856666Y-64092619D01*
X166856666Y-64092619D02*
X166951904Y-64140238D01*
X166951904Y-64140238D02*
X166999523Y-64187857D01*
X166999523Y-64187857D02*
X167047142Y-64283095D01*
X167047142Y-64283095D02*
X167047142Y-64425952D01*
X167047142Y-64425952D02*
X166999523Y-64521190D01*
X166999523Y-64521190D02*
X166951904Y-64568809D01*
X166951904Y-64568809D02*
X166856666Y-64616428D01*
X166856666Y-64616428D02*
X166475714Y-64616428D01*
X167380476Y-64092619D02*
X167999523Y-64092619D01*
X167999523Y-64092619D02*
X167666190Y-64473571D01*
X167666190Y-64473571D02*
X167809047Y-64473571D01*
X167809047Y-64473571D02*
X167904285Y-64521190D01*
X167904285Y-64521190D02*
X167951904Y-64568809D01*
X167951904Y-64568809D02*
X167999523Y-64664047D01*
X167999523Y-64664047D02*
X167999523Y-64902142D01*
X167999523Y-64902142D02*
X167951904Y-64997380D01*
X167951904Y-64997380D02*
X167904285Y-65045000D01*
X167904285Y-65045000D02*
X167809047Y-65092619D01*
X167809047Y-65092619D02*
X167523333Y-65092619D01*
X167523333Y-65092619D02*
X167428095Y-65045000D01*
X167428095Y-65045000D02*
X167380476Y-64997380D01*
X168332857Y-64092619D02*
X168951904Y-64092619D01*
X168951904Y-64092619D02*
X168618571Y-64473571D01*
X168618571Y-64473571D02*
X168761428Y-64473571D01*
X168761428Y-64473571D02*
X168856666Y-64521190D01*
X168856666Y-64521190D02*
X168904285Y-64568809D01*
X168904285Y-64568809D02*
X168951904Y-64664047D01*
X168951904Y-64664047D02*
X168951904Y-64902142D01*
X168951904Y-64902142D02*
X168904285Y-64997380D01*
X168904285Y-64997380D02*
X168856666Y-65045000D01*
X168856666Y-65045000D02*
X168761428Y-65092619D01*
X168761428Y-65092619D02*
X168475714Y-65092619D01*
X168475714Y-65092619D02*
X168380476Y-65045000D01*
X168380476Y-65045000D02*
X168332857Y-64997380D01*
%TO.C,R18*%
X127257142Y-77192619D02*
X126923809Y-76716428D01*
X126685714Y-77192619D02*
X126685714Y-76192619D01*
X126685714Y-76192619D02*
X127066666Y-76192619D01*
X127066666Y-76192619D02*
X127161904Y-76240238D01*
X127161904Y-76240238D02*
X127209523Y-76287857D01*
X127209523Y-76287857D02*
X127257142Y-76383095D01*
X127257142Y-76383095D02*
X127257142Y-76525952D01*
X127257142Y-76525952D02*
X127209523Y-76621190D01*
X127209523Y-76621190D02*
X127161904Y-76668809D01*
X127161904Y-76668809D02*
X127066666Y-76716428D01*
X127066666Y-76716428D02*
X126685714Y-76716428D01*
X128209523Y-77192619D02*
X127638095Y-77192619D01*
X127923809Y-77192619D02*
X127923809Y-76192619D01*
X127923809Y-76192619D02*
X127828571Y-76335476D01*
X127828571Y-76335476D02*
X127733333Y-76430714D01*
X127733333Y-76430714D02*
X127638095Y-76478333D01*
X128780952Y-76621190D02*
X128685714Y-76573571D01*
X128685714Y-76573571D02*
X128638095Y-76525952D01*
X128638095Y-76525952D02*
X128590476Y-76430714D01*
X128590476Y-76430714D02*
X128590476Y-76383095D01*
X128590476Y-76383095D02*
X128638095Y-76287857D01*
X128638095Y-76287857D02*
X128685714Y-76240238D01*
X128685714Y-76240238D02*
X128780952Y-76192619D01*
X128780952Y-76192619D02*
X128971428Y-76192619D01*
X128971428Y-76192619D02*
X129066666Y-76240238D01*
X129066666Y-76240238D02*
X129114285Y-76287857D01*
X129114285Y-76287857D02*
X129161904Y-76383095D01*
X129161904Y-76383095D02*
X129161904Y-76430714D01*
X129161904Y-76430714D02*
X129114285Y-76525952D01*
X129114285Y-76525952D02*
X129066666Y-76573571D01*
X129066666Y-76573571D02*
X128971428Y-76621190D01*
X128971428Y-76621190D02*
X128780952Y-76621190D01*
X128780952Y-76621190D02*
X128685714Y-76668809D01*
X128685714Y-76668809D02*
X128638095Y-76716428D01*
X128638095Y-76716428D02*
X128590476Y-76811666D01*
X128590476Y-76811666D02*
X128590476Y-77002142D01*
X128590476Y-77002142D02*
X128638095Y-77097380D01*
X128638095Y-77097380D02*
X128685714Y-77145000D01*
X128685714Y-77145000D02*
X128780952Y-77192619D01*
X128780952Y-77192619D02*
X128971428Y-77192619D01*
X128971428Y-77192619D02*
X129066666Y-77145000D01*
X129066666Y-77145000D02*
X129114285Y-77097380D01*
X129114285Y-77097380D02*
X129161904Y-77002142D01*
X129161904Y-77002142D02*
X129161904Y-76811666D01*
X129161904Y-76811666D02*
X129114285Y-76716428D01*
X129114285Y-76716428D02*
X129066666Y-76668809D01*
X129066666Y-76668809D02*
X128971428Y-76621190D01*
%TO.C,R31*%
X167037142Y-58092619D02*
X166703809Y-57616428D01*
X166465714Y-58092619D02*
X166465714Y-57092619D01*
X166465714Y-57092619D02*
X166846666Y-57092619D01*
X166846666Y-57092619D02*
X166941904Y-57140238D01*
X166941904Y-57140238D02*
X166989523Y-57187857D01*
X166989523Y-57187857D02*
X167037142Y-57283095D01*
X167037142Y-57283095D02*
X167037142Y-57425952D01*
X167037142Y-57425952D02*
X166989523Y-57521190D01*
X166989523Y-57521190D02*
X166941904Y-57568809D01*
X166941904Y-57568809D02*
X166846666Y-57616428D01*
X166846666Y-57616428D02*
X166465714Y-57616428D01*
X167370476Y-57092619D02*
X167989523Y-57092619D01*
X167989523Y-57092619D02*
X167656190Y-57473571D01*
X167656190Y-57473571D02*
X167799047Y-57473571D01*
X167799047Y-57473571D02*
X167894285Y-57521190D01*
X167894285Y-57521190D02*
X167941904Y-57568809D01*
X167941904Y-57568809D02*
X167989523Y-57664047D01*
X167989523Y-57664047D02*
X167989523Y-57902142D01*
X167989523Y-57902142D02*
X167941904Y-57997380D01*
X167941904Y-57997380D02*
X167894285Y-58045000D01*
X167894285Y-58045000D02*
X167799047Y-58092619D01*
X167799047Y-58092619D02*
X167513333Y-58092619D01*
X167513333Y-58092619D02*
X167418095Y-58045000D01*
X167418095Y-58045000D02*
X167370476Y-57997380D01*
X168941904Y-58092619D02*
X168370476Y-58092619D01*
X168656190Y-58092619D02*
X168656190Y-57092619D01*
X168656190Y-57092619D02*
X168560952Y-57235476D01*
X168560952Y-57235476D02*
X168465714Y-57330714D01*
X168465714Y-57330714D02*
X168370476Y-57378333D01*
%TO.C,R10*%
X126897142Y-47972619D02*
X126563809Y-47496428D01*
X126325714Y-47972619D02*
X126325714Y-46972619D01*
X126325714Y-46972619D02*
X126706666Y-46972619D01*
X126706666Y-46972619D02*
X126801904Y-47020238D01*
X126801904Y-47020238D02*
X126849523Y-47067857D01*
X126849523Y-47067857D02*
X126897142Y-47163095D01*
X126897142Y-47163095D02*
X126897142Y-47305952D01*
X126897142Y-47305952D02*
X126849523Y-47401190D01*
X126849523Y-47401190D02*
X126801904Y-47448809D01*
X126801904Y-47448809D02*
X126706666Y-47496428D01*
X126706666Y-47496428D02*
X126325714Y-47496428D01*
X127849523Y-47972619D02*
X127278095Y-47972619D01*
X127563809Y-47972619D02*
X127563809Y-46972619D01*
X127563809Y-46972619D02*
X127468571Y-47115476D01*
X127468571Y-47115476D02*
X127373333Y-47210714D01*
X127373333Y-47210714D02*
X127278095Y-47258333D01*
X128468571Y-46972619D02*
X128563809Y-46972619D01*
X128563809Y-46972619D02*
X128659047Y-47020238D01*
X128659047Y-47020238D02*
X128706666Y-47067857D01*
X128706666Y-47067857D02*
X128754285Y-47163095D01*
X128754285Y-47163095D02*
X128801904Y-47353571D01*
X128801904Y-47353571D02*
X128801904Y-47591666D01*
X128801904Y-47591666D02*
X128754285Y-47782142D01*
X128754285Y-47782142D02*
X128706666Y-47877380D01*
X128706666Y-47877380D02*
X128659047Y-47925000D01*
X128659047Y-47925000D02*
X128563809Y-47972619D01*
X128563809Y-47972619D02*
X128468571Y-47972619D01*
X128468571Y-47972619D02*
X128373333Y-47925000D01*
X128373333Y-47925000D02*
X128325714Y-47877380D01*
X128325714Y-47877380D02*
X128278095Y-47782142D01*
X128278095Y-47782142D02*
X128230476Y-47591666D01*
X128230476Y-47591666D02*
X128230476Y-47353571D01*
X128230476Y-47353571D02*
X128278095Y-47163095D01*
X128278095Y-47163095D02*
X128325714Y-47067857D01*
X128325714Y-47067857D02*
X128373333Y-47020238D01*
X128373333Y-47020238D02*
X128468571Y-46972619D01*
%TO.C,R48*%
X122847142Y-91592619D02*
X122513809Y-91116428D01*
X122275714Y-91592619D02*
X122275714Y-90592619D01*
X122275714Y-90592619D02*
X122656666Y-90592619D01*
X122656666Y-90592619D02*
X122751904Y-90640238D01*
X122751904Y-90640238D02*
X122799523Y-90687857D01*
X122799523Y-90687857D02*
X122847142Y-90783095D01*
X122847142Y-90783095D02*
X122847142Y-90925952D01*
X122847142Y-90925952D02*
X122799523Y-91021190D01*
X122799523Y-91021190D02*
X122751904Y-91068809D01*
X122751904Y-91068809D02*
X122656666Y-91116428D01*
X122656666Y-91116428D02*
X122275714Y-91116428D01*
X123704285Y-90925952D02*
X123704285Y-91592619D01*
X123466190Y-90545000D02*
X123228095Y-91259285D01*
X123228095Y-91259285D02*
X123847142Y-91259285D01*
X124370952Y-91021190D02*
X124275714Y-90973571D01*
X124275714Y-90973571D02*
X124228095Y-90925952D01*
X124228095Y-90925952D02*
X124180476Y-90830714D01*
X124180476Y-90830714D02*
X124180476Y-90783095D01*
X124180476Y-90783095D02*
X124228095Y-90687857D01*
X124228095Y-90687857D02*
X124275714Y-90640238D01*
X124275714Y-90640238D02*
X124370952Y-90592619D01*
X124370952Y-90592619D02*
X124561428Y-90592619D01*
X124561428Y-90592619D02*
X124656666Y-90640238D01*
X124656666Y-90640238D02*
X124704285Y-90687857D01*
X124704285Y-90687857D02*
X124751904Y-90783095D01*
X124751904Y-90783095D02*
X124751904Y-90830714D01*
X124751904Y-90830714D02*
X124704285Y-90925952D01*
X124704285Y-90925952D02*
X124656666Y-90973571D01*
X124656666Y-90973571D02*
X124561428Y-91021190D01*
X124561428Y-91021190D02*
X124370952Y-91021190D01*
X124370952Y-91021190D02*
X124275714Y-91068809D01*
X124275714Y-91068809D02*
X124228095Y-91116428D01*
X124228095Y-91116428D02*
X124180476Y-91211666D01*
X124180476Y-91211666D02*
X124180476Y-91402142D01*
X124180476Y-91402142D02*
X124228095Y-91497380D01*
X124228095Y-91497380D02*
X124275714Y-91545000D01*
X124275714Y-91545000D02*
X124370952Y-91592619D01*
X124370952Y-91592619D02*
X124561428Y-91592619D01*
X124561428Y-91592619D02*
X124656666Y-91545000D01*
X124656666Y-91545000D02*
X124704285Y-91497380D01*
X124704285Y-91497380D02*
X124751904Y-91402142D01*
X124751904Y-91402142D02*
X124751904Y-91211666D01*
X124751904Y-91211666D02*
X124704285Y-91116428D01*
X124704285Y-91116428D02*
X124656666Y-91068809D01*
X124656666Y-91068809D02*
X124561428Y-91021190D01*
%TO.C,R51*%
X122847142Y-101792619D02*
X122513809Y-101316428D01*
X122275714Y-101792619D02*
X122275714Y-100792619D01*
X122275714Y-100792619D02*
X122656666Y-100792619D01*
X122656666Y-100792619D02*
X122751904Y-100840238D01*
X122751904Y-100840238D02*
X122799523Y-100887857D01*
X122799523Y-100887857D02*
X122847142Y-100983095D01*
X122847142Y-100983095D02*
X122847142Y-101125952D01*
X122847142Y-101125952D02*
X122799523Y-101221190D01*
X122799523Y-101221190D02*
X122751904Y-101268809D01*
X122751904Y-101268809D02*
X122656666Y-101316428D01*
X122656666Y-101316428D02*
X122275714Y-101316428D01*
X123751904Y-100792619D02*
X123275714Y-100792619D01*
X123275714Y-100792619D02*
X123228095Y-101268809D01*
X123228095Y-101268809D02*
X123275714Y-101221190D01*
X123275714Y-101221190D02*
X123370952Y-101173571D01*
X123370952Y-101173571D02*
X123609047Y-101173571D01*
X123609047Y-101173571D02*
X123704285Y-101221190D01*
X123704285Y-101221190D02*
X123751904Y-101268809D01*
X123751904Y-101268809D02*
X123799523Y-101364047D01*
X123799523Y-101364047D02*
X123799523Y-101602142D01*
X123799523Y-101602142D02*
X123751904Y-101697380D01*
X123751904Y-101697380D02*
X123704285Y-101745000D01*
X123704285Y-101745000D02*
X123609047Y-101792619D01*
X123609047Y-101792619D02*
X123370952Y-101792619D01*
X123370952Y-101792619D02*
X123275714Y-101745000D01*
X123275714Y-101745000D02*
X123228095Y-101697380D01*
X124751904Y-101792619D02*
X124180476Y-101792619D01*
X124466190Y-101792619D02*
X124466190Y-100792619D01*
X124466190Y-100792619D02*
X124370952Y-100935476D01*
X124370952Y-100935476D02*
X124275714Y-101030714D01*
X124275714Y-101030714D02*
X124180476Y-101078333D01*
%TO.C,R26*%
X164517142Y-55572619D02*
X164183809Y-55096428D01*
X163945714Y-55572619D02*
X163945714Y-54572619D01*
X163945714Y-54572619D02*
X164326666Y-54572619D01*
X164326666Y-54572619D02*
X164421904Y-54620238D01*
X164421904Y-54620238D02*
X164469523Y-54667857D01*
X164469523Y-54667857D02*
X164517142Y-54763095D01*
X164517142Y-54763095D02*
X164517142Y-54905952D01*
X164517142Y-54905952D02*
X164469523Y-55001190D01*
X164469523Y-55001190D02*
X164421904Y-55048809D01*
X164421904Y-55048809D02*
X164326666Y-55096428D01*
X164326666Y-55096428D02*
X163945714Y-55096428D01*
X164898095Y-54667857D02*
X164945714Y-54620238D01*
X164945714Y-54620238D02*
X165040952Y-54572619D01*
X165040952Y-54572619D02*
X165279047Y-54572619D01*
X165279047Y-54572619D02*
X165374285Y-54620238D01*
X165374285Y-54620238D02*
X165421904Y-54667857D01*
X165421904Y-54667857D02*
X165469523Y-54763095D01*
X165469523Y-54763095D02*
X165469523Y-54858333D01*
X165469523Y-54858333D02*
X165421904Y-55001190D01*
X165421904Y-55001190D02*
X164850476Y-55572619D01*
X164850476Y-55572619D02*
X165469523Y-55572619D01*
X166326666Y-54572619D02*
X166136190Y-54572619D01*
X166136190Y-54572619D02*
X166040952Y-54620238D01*
X166040952Y-54620238D02*
X165993333Y-54667857D01*
X165993333Y-54667857D02*
X165898095Y-54810714D01*
X165898095Y-54810714D02*
X165850476Y-55001190D01*
X165850476Y-55001190D02*
X165850476Y-55382142D01*
X165850476Y-55382142D02*
X165898095Y-55477380D01*
X165898095Y-55477380D02*
X165945714Y-55525000D01*
X165945714Y-55525000D02*
X166040952Y-55572619D01*
X166040952Y-55572619D02*
X166231428Y-55572619D01*
X166231428Y-55572619D02*
X166326666Y-55525000D01*
X166326666Y-55525000D02*
X166374285Y-55477380D01*
X166374285Y-55477380D02*
X166421904Y-55382142D01*
X166421904Y-55382142D02*
X166421904Y-55144047D01*
X166421904Y-55144047D02*
X166374285Y-55048809D01*
X166374285Y-55048809D02*
X166326666Y-55001190D01*
X166326666Y-55001190D02*
X166231428Y-54953571D01*
X166231428Y-54953571D02*
X166040952Y-54953571D01*
X166040952Y-54953571D02*
X165945714Y-55001190D01*
X165945714Y-55001190D02*
X165898095Y-55048809D01*
X165898095Y-55048809D02*
X165850476Y-55144047D01*
%TO.C,J4*%
X156111666Y-46482619D02*
X156111666Y-47196904D01*
X156111666Y-47196904D02*
X156064047Y-47339761D01*
X156064047Y-47339761D02*
X155968809Y-47435000D01*
X155968809Y-47435000D02*
X155825952Y-47482619D01*
X155825952Y-47482619D02*
X155730714Y-47482619D01*
X157016428Y-46815952D02*
X157016428Y-47482619D01*
X156778333Y-46435000D02*
X156540238Y-47149285D01*
X156540238Y-47149285D02*
X157159285Y-47149285D01*
%TO.C,R20*%
X145847142Y-50242619D02*
X145513809Y-49766428D01*
X145275714Y-50242619D02*
X145275714Y-49242619D01*
X145275714Y-49242619D02*
X145656666Y-49242619D01*
X145656666Y-49242619D02*
X145751904Y-49290238D01*
X145751904Y-49290238D02*
X145799523Y-49337857D01*
X145799523Y-49337857D02*
X145847142Y-49433095D01*
X145847142Y-49433095D02*
X145847142Y-49575952D01*
X145847142Y-49575952D02*
X145799523Y-49671190D01*
X145799523Y-49671190D02*
X145751904Y-49718809D01*
X145751904Y-49718809D02*
X145656666Y-49766428D01*
X145656666Y-49766428D02*
X145275714Y-49766428D01*
X146228095Y-49337857D02*
X146275714Y-49290238D01*
X146275714Y-49290238D02*
X146370952Y-49242619D01*
X146370952Y-49242619D02*
X146609047Y-49242619D01*
X146609047Y-49242619D02*
X146704285Y-49290238D01*
X146704285Y-49290238D02*
X146751904Y-49337857D01*
X146751904Y-49337857D02*
X146799523Y-49433095D01*
X146799523Y-49433095D02*
X146799523Y-49528333D01*
X146799523Y-49528333D02*
X146751904Y-49671190D01*
X146751904Y-49671190D02*
X146180476Y-50242619D01*
X146180476Y-50242619D02*
X146799523Y-50242619D01*
X147418571Y-49242619D02*
X147513809Y-49242619D01*
X147513809Y-49242619D02*
X147609047Y-49290238D01*
X147609047Y-49290238D02*
X147656666Y-49337857D01*
X147656666Y-49337857D02*
X147704285Y-49433095D01*
X147704285Y-49433095D02*
X147751904Y-49623571D01*
X147751904Y-49623571D02*
X147751904Y-49861666D01*
X147751904Y-49861666D02*
X147704285Y-50052142D01*
X147704285Y-50052142D02*
X147656666Y-50147380D01*
X147656666Y-50147380D02*
X147609047Y-50195000D01*
X147609047Y-50195000D02*
X147513809Y-50242619D01*
X147513809Y-50242619D02*
X147418571Y-50242619D01*
X147418571Y-50242619D02*
X147323333Y-50195000D01*
X147323333Y-50195000D02*
X147275714Y-50147380D01*
X147275714Y-50147380D02*
X147228095Y-50052142D01*
X147228095Y-50052142D02*
X147180476Y-49861666D01*
X147180476Y-49861666D02*
X147180476Y-49623571D01*
X147180476Y-49623571D02*
X147228095Y-49433095D01*
X147228095Y-49433095D02*
X147275714Y-49337857D01*
X147275714Y-49337857D02*
X147323333Y-49290238D01*
X147323333Y-49290238D02*
X147418571Y-49242619D01*
%TO.C,R61*%
X144472142Y-105392619D02*
X144138809Y-104916428D01*
X143900714Y-105392619D02*
X143900714Y-104392619D01*
X143900714Y-104392619D02*
X144281666Y-104392619D01*
X144281666Y-104392619D02*
X144376904Y-104440238D01*
X144376904Y-104440238D02*
X144424523Y-104487857D01*
X144424523Y-104487857D02*
X144472142Y-104583095D01*
X144472142Y-104583095D02*
X144472142Y-104725952D01*
X144472142Y-104725952D02*
X144424523Y-104821190D01*
X144424523Y-104821190D02*
X144376904Y-104868809D01*
X144376904Y-104868809D02*
X144281666Y-104916428D01*
X144281666Y-104916428D02*
X143900714Y-104916428D01*
X145329285Y-104392619D02*
X145138809Y-104392619D01*
X145138809Y-104392619D02*
X145043571Y-104440238D01*
X145043571Y-104440238D02*
X144995952Y-104487857D01*
X144995952Y-104487857D02*
X144900714Y-104630714D01*
X144900714Y-104630714D02*
X144853095Y-104821190D01*
X144853095Y-104821190D02*
X144853095Y-105202142D01*
X144853095Y-105202142D02*
X144900714Y-105297380D01*
X144900714Y-105297380D02*
X144948333Y-105345000D01*
X144948333Y-105345000D02*
X145043571Y-105392619D01*
X145043571Y-105392619D02*
X145234047Y-105392619D01*
X145234047Y-105392619D02*
X145329285Y-105345000D01*
X145329285Y-105345000D02*
X145376904Y-105297380D01*
X145376904Y-105297380D02*
X145424523Y-105202142D01*
X145424523Y-105202142D02*
X145424523Y-104964047D01*
X145424523Y-104964047D02*
X145376904Y-104868809D01*
X145376904Y-104868809D02*
X145329285Y-104821190D01*
X145329285Y-104821190D02*
X145234047Y-104773571D01*
X145234047Y-104773571D02*
X145043571Y-104773571D01*
X145043571Y-104773571D02*
X144948333Y-104821190D01*
X144948333Y-104821190D02*
X144900714Y-104868809D01*
X144900714Y-104868809D02*
X144853095Y-104964047D01*
X146376904Y-105392619D02*
X145805476Y-105392619D01*
X146091190Y-105392619D02*
X146091190Y-104392619D01*
X146091190Y-104392619D02*
X145995952Y-104535476D01*
X145995952Y-104535476D02*
X145900714Y-104630714D01*
X145900714Y-104630714D02*
X145805476Y-104678333D01*
%TO.C,J6*%
X135796666Y-87772619D02*
X135796666Y-88486904D01*
X135796666Y-88486904D02*
X135749047Y-88629761D01*
X135749047Y-88629761D02*
X135653809Y-88725000D01*
X135653809Y-88725000D02*
X135510952Y-88772619D01*
X135510952Y-88772619D02*
X135415714Y-88772619D01*
X136701428Y-87772619D02*
X136510952Y-87772619D01*
X136510952Y-87772619D02*
X136415714Y-87820238D01*
X136415714Y-87820238D02*
X136368095Y-87867857D01*
X136368095Y-87867857D02*
X136272857Y-88010714D01*
X136272857Y-88010714D02*
X136225238Y-88201190D01*
X136225238Y-88201190D02*
X136225238Y-88582142D01*
X136225238Y-88582142D02*
X136272857Y-88677380D01*
X136272857Y-88677380D02*
X136320476Y-88725000D01*
X136320476Y-88725000D02*
X136415714Y-88772619D01*
X136415714Y-88772619D02*
X136606190Y-88772619D01*
X136606190Y-88772619D02*
X136701428Y-88725000D01*
X136701428Y-88725000D02*
X136749047Y-88677380D01*
X136749047Y-88677380D02*
X136796666Y-88582142D01*
X136796666Y-88582142D02*
X136796666Y-88344047D01*
X136796666Y-88344047D02*
X136749047Y-88248809D01*
X136749047Y-88248809D02*
X136701428Y-88201190D01*
X136701428Y-88201190D02*
X136606190Y-88153571D01*
X136606190Y-88153571D02*
X136415714Y-88153571D01*
X136415714Y-88153571D02*
X136320476Y-88201190D01*
X136320476Y-88201190D02*
X136272857Y-88248809D01*
X136272857Y-88248809D02*
X136225238Y-88344047D01*
%TO.C,R25*%
X145957142Y-67642619D02*
X145623809Y-67166428D01*
X145385714Y-67642619D02*
X145385714Y-66642619D01*
X145385714Y-66642619D02*
X145766666Y-66642619D01*
X145766666Y-66642619D02*
X145861904Y-66690238D01*
X145861904Y-66690238D02*
X145909523Y-66737857D01*
X145909523Y-66737857D02*
X145957142Y-66833095D01*
X145957142Y-66833095D02*
X145957142Y-66975952D01*
X145957142Y-66975952D02*
X145909523Y-67071190D01*
X145909523Y-67071190D02*
X145861904Y-67118809D01*
X145861904Y-67118809D02*
X145766666Y-67166428D01*
X145766666Y-67166428D02*
X145385714Y-67166428D01*
X146338095Y-66737857D02*
X146385714Y-66690238D01*
X146385714Y-66690238D02*
X146480952Y-66642619D01*
X146480952Y-66642619D02*
X146719047Y-66642619D01*
X146719047Y-66642619D02*
X146814285Y-66690238D01*
X146814285Y-66690238D02*
X146861904Y-66737857D01*
X146861904Y-66737857D02*
X146909523Y-66833095D01*
X146909523Y-66833095D02*
X146909523Y-66928333D01*
X146909523Y-66928333D02*
X146861904Y-67071190D01*
X146861904Y-67071190D02*
X146290476Y-67642619D01*
X146290476Y-67642619D02*
X146909523Y-67642619D01*
X147814285Y-66642619D02*
X147338095Y-66642619D01*
X147338095Y-66642619D02*
X147290476Y-67118809D01*
X147290476Y-67118809D02*
X147338095Y-67071190D01*
X147338095Y-67071190D02*
X147433333Y-67023571D01*
X147433333Y-67023571D02*
X147671428Y-67023571D01*
X147671428Y-67023571D02*
X147766666Y-67071190D01*
X147766666Y-67071190D02*
X147814285Y-67118809D01*
X147814285Y-67118809D02*
X147861904Y-67214047D01*
X147861904Y-67214047D02*
X147861904Y-67452142D01*
X147861904Y-67452142D02*
X147814285Y-67547380D01*
X147814285Y-67547380D02*
X147766666Y-67595000D01*
X147766666Y-67595000D02*
X147671428Y-67642619D01*
X147671428Y-67642619D02*
X147433333Y-67642619D01*
X147433333Y-67642619D02*
X147338095Y-67595000D01*
X147338095Y-67595000D02*
X147290476Y-67547380D01*
%TO.C,R8*%
X107823333Y-71192619D02*
X107490000Y-70716428D01*
X107251905Y-71192619D02*
X107251905Y-70192619D01*
X107251905Y-70192619D02*
X107632857Y-70192619D01*
X107632857Y-70192619D02*
X107728095Y-70240238D01*
X107728095Y-70240238D02*
X107775714Y-70287857D01*
X107775714Y-70287857D02*
X107823333Y-70383095D01*
X107823333Y-70383095D02*
X107823333Y-70525952D01*
X107823333Y-70525952D02*
X107775714Y-70621190D01*
X107775714Y-70621190D02*
X107728095Y-70668809D01*
X107728095Y-70668809D02*
X107632857Y-70716428D01*
X107632857Y-70716428D02*
X107251905Y-70716428D01*
X108394762Y-70621190D02*
X108299524Y-70573571D01*
X108299524Y-70573571D02*
X108251905Y-70525952D01*
X108251905Y-70525952D02*
X108204286Y-70430714D01*
X108204286Y-70430714D02*
X108204286Y-70383095D01*
X108204286Y-70383095D02*
X108251905Y-70287857D01*
X108251905Y-70287857D02*
X108299524Y-70240238D01*
X108299524Y-70240238D02*
X108394762Y-70192619D01*
X108394762Y-70192619D02*
X108585238Y-70192619D01*
X108585238Y-70192619D02*
X108680476Y-70240238D01*
X108680476Y-70240238D02*
X108728095Y-70287857D01*
X108728095Y-70287857D02*
X108775714Y-70383095D01*
X108775714Y-70383095D02*
X108775714Y-70430714D01*
X108775714Y-70430714D02*
X108728095Y-70525952D01*
X108728095Y-70525952D02*
X108680476Y-70573571D01*
X108680476Y-70573571D02*
X108585238Y-70621190D01*
X108585238Y-70621190D02*
X108394762Y-70621190D01*
X108394762Y-70621190D02*
X108299524Y-70668809D01*
X108299524Y-70668809D02*
X108251905Y-70716428D01*
X108251905Y-70716428D02*
X108204286Y-70811666D01*
X108204286Y-70811666D02*
X108204286Y-71002142D01*
X108204286Y-71002142D02*
X108251905Y-71097380D01*
X108251905Y-71097380D02*
X108299524Y-71145000D01*
X108299524Y-71145000D02*
X108394762Y-71192619D01*
X108394762Y-71192619D02*
X108585238Y-71192619D01*
X108585238Y-71192619D02*
X108680476Y-71145000D01*
X108680476Y-71145000D02*
X108728095Y-71097380D01*
X108728095Y-71097380D02*
X108775714Y-71002142D01*
X108775714Y-71002142D02*
X108775714Y-70811666D01*
X108775714Y-70811666D02*
X108728095Y-70716428D01*
X108728095Y-70716428D02*
X108680476Y-70668809D01*
X108680476Y-70668809D02*
X108585238Y-70621190D01*
%TO.C,R11*%
X126947142Y-51392619D02*
X126613809Y-50916428D01*
X126375714Y-51392619D02*
X126375714Y-50392619D01*
X126375714Y-50392619D02*
X126756666Y-50392619D01*
X126756666Y-50392619D02*
X126851904Y-50440238D01*
X126851904Y-50440238D02*
X126899523Y-50487857D01*
X126899523Y-50487857D02*
X126947142Y-50583095D01*
X126947142Y-50583095D02*
X126947142Y-50725952D01*
X126947142Y-50725952D02*
X126899523Y-50821190D01*
X126899523Y-50821190D02*
X126851904Y-50868809D01*
X126851904Y-50868809D02*
X126756666Y-50916428D01*
X126756666Y-50916428D02*
X126375714Y-50916428D01*
X127899523Y-51392619D02*
X127328095Y-51392619D01*
X127613809Y-51392619D02*
X127613809Y-50392619D01*
X127613809Y-50392619D02*
X127518571Y-50535476D01*
X127518571Y-50535476D02*
X127423333Y-50630714D01*
X127423333Y-50630714D02*
X127328095Y-50678333D01*
X128851904Y-51392619D02*
X128280476Y-51392619D01*
X128566190Y-51392619D02*
X128566190Y-50392619D01*
X128566190Y-50392619D02*
X128470952Y-50535476D01*
X128470952Y-50535476D02*
X128375714Y-50630714D01*
X128375714Y-50630714D02*
X128280476Y-50678333D01*
%TO.C,R23*%
X145947142Y-60742619D02*
X145613809Y-60266428D01*
X145375714Y-60742619D02*
X145375714Y-59742619D01*
X145375714Y-59742619D02*
X145756666Y-59742619D01*
X145756666Y-59742619D02*
X145851904Y-59790238D01*
X145851904Y-59790238D02*
X145899523Y-59837857D01*
X145899523Y-59837857D02*
X145947142Y-59933095D01*
X145947142Y-59933095D02*
X145947142Y-60075952D01*
X145947142Y-60075952D02*
X145899523Y-60171190D01*
X145899523Y-60171190D02*
X145851904Y-60218809D01*
X145851904Y-60218809D02*
X145756666Y-60266428D01*
X145756666Y-60266428D02*
X145375714Y-60266428D01*
X146328095Y-59837857D02*
X146375714Y-59790238D01*
X146375714Y-59790238D02*
X146470952Y-59742619D01*
X146470952Y-59742619D02*
X146709047Y-59742619D01*
X146709047Y-59742619D02*
X146804285Y-59790238D01*
X146804285Y-59790238D02*
X146851904Y-59837857D01*
X146851904Y-59837857D02*
X146899523Y-59933095D01*
X146899523Y-59933095D02*
X146899523Y-60028333D01*
X146899523Y-60028333D02*
X146851904Y-60171190D01*
X146851904Y-60171190D02*
X146280476Y-60742619D01*
X146280476Y-60742619D02*
X146899523Y-60742619D01*
X147232857Y-59742619D02*
X147851904Y-59742619D01*
X147851904Y-59742619D02*
X147518571Y-60123571D01*
X147518571Y-60123571D02*
X147661428Y-60123571D01*
X147661428Y-60123571D02*
X147756666Y-60171190D01*
X147756666Y-60171190D02*
X147804285Y-60218809D01*
X147804285Y-60218809D02*
X147851904Y-60314047D01*
X147851904Y-60314047D02*
X147851904Y-60552142D01*
X147851904Y-60552142D02*
X147804285Y-60647380D01*
X147804285Y-60647380D02*
X147756666Y-60695000D01*
X147756666Y-60695000D02*
X147661428Y-60742619D01*
X147661428Y-60742619D02*
X147375714Y-60742619D01*
X147375714Y-60742619D02*
X147280476Y-60695000D01*
X147280476Y-60695000D02*
X147232857Y-60647380D01*
%TO.C,J5*%
X114196666Y-88132619D02*
X114196666Y-88846904D01*
X114196666Y-88846904D02*
X114149047Y-88989761D01*
X114149047Y-88989761D02*
X114053809Y-89085000D01*
X114053809Y-89085000D02*
X113910952Y-89132619D01*
X113910952Y-89132619D02*
X113815714Y-89132619D01*
X115149047Y-88132619D02*
X114672857Y-88132619D01*
X114672857Y-88132619D02*
X114625238Y-88608809D01*
X114625238Y-88608809D02*
X114672857Y-88561190D01*
X114672857Y-88561190D02*
X114768095Y-88513571D01*
X114768095Y-88513571D02*
X115006190Y-88513571D01*
X115006190Y-88513571D02*
X115101428Y-88561190D01*
X115101428Y-88561190D02*
X115149047Y-88608809D01*
X115149047Y-88608809D02*
X115196666Y-88704047D01*
X115196666Y-88704047D02*
X115196666Y-88942142D01*
X115196666Y-88942142D02*
X115149047Y-89037380D01*
X115149047Y-89037380D02*
X115101428Y-89085000D01*
X115101428Y-89085000D02*
X115006190Y-89132619D01*
X115006190Y-89132619D02*
X114768095Y-89132619D01*
X114768095Y-89132619D02*
X114672857Y-89085000D01*
X114672857Y-89085000D02*
X114625238Y-89037380D01*
%TO.C,R5*%
X107883333Y-61292619D02*
X107550000Y-60816428D01*
X107311905Y-61292619D02*
X107311905Y-60292619D01*
X107311905Y-60292619D02*
X107692857Y-60292619D01*
X107692857Y-60292619D02*
X107788095Y-60340238D01*
X107788095Y-60340238D02*
X107835714Y-60387857D01*
X107835714Y-60387857D02*
X107883333Y-60483095D01*
X107883333Y-60483095D02*
X107883333Y-60625952D01*
X107883333Y-60625952D02*
X107835714Y-60721190D01*
X107835714Y-60721190D02*
X107788095Y-60768809D01*
X107788095Y-60768809D02*
X107692857Y-60816428D01*
X107692857Y-60816428D02*
X107311905Y-60816428D01*
X108788095Y-60292619D02*
X108311905Y-60292619D01*
X108311905Y-60292619D02*
X108264286Y-60768809D01*
X108264286Y-60768809D02*
X108311905Y-60721190D01*
X108311905Y-60721190D02*
X108407143Y-60673571D01*
X108407143Y-60673571D02*
X108645238Y-60673571D01*
X108645238Y-60673571D02*
X108740476Y-60721190D01*
X108740476Y-60721190D02*
X108788095Y-60768809D01*
X108788095Y-60768809D02*
X108835714Y-60864047D01*
X108835714Y-60864047D02*
X108835714Y-61102142D01*
X108835714Y-61102142D02*
X108788095Y-61197380D01*
X108788095Y-61197380D02*
X108740476Y-61245000D01*
X108740476Y-61245000D02*
X108645238Y-61292619D01*
X108645238Y-61292619D02*
X108407143Y-61292619D01*
X108407143Y-61292619D02*
X108311905Y-61245000D01*
X108311905Y-61245000D02*
X108264286Y-61197380D01*
%TO.C,R55*%
X144447142Y-84792619D02*
X144113809Y-84316428D01*
X143875714Y-84792619D02*
X143875714Y-83792619D01*
X143875714Y-83792619D02*
X144256666Y-83792619D01*
X144256666Y-83792619D02*
X144351904Y-83840238D01*
X144351904Y-83840238D02*
X144399523Y-83887857D01*
X144399523Y-83887857D02*
X144447142Y-83983095D01*
X144447142Y-83983095D02*
X144447142Y-84125952D01*
X144447142Y-84125952D02*
X144399523Y-84221190D01*
X144399523Y-84221190D02*
X144351904Y-84268809D01*
X144351904Y-84268809D02*
X144256666Y-84316428D01*
X144256666Y-84316428D02*
X143875714Y-84316428D01*
X145351904Y-83792619D02*
X144875714Y-83792619D01*
X144875714Y-83792619D02*
X144828095Y-84268809D01*
X144828095Y-84268809D02*
X144875714Y-84221190D01*
X144875714Y-84221190D02*
X144970952Y-84173571D01*
X144970952Y-84173571D02*
X145209047Y-84173571D01*
X145209047Y-84173571D02*
X145304285Y-84221190D01*
X145304285Y-84221190D02*
X145351904Y-84268809D01*
X145351904Y-84268809D02*
X145399523Y-84364047D01*
X145399523Y-84364047D02*
X145399523Y-84602142D01*
X145399523Y-84602142D02*
X145351904Y-84697380D01*
X145351904Y-84697380D02*
X145304285Y-84745000D01*
X145304285Y-84745000D02*
X145209047Y-84792619D01*
X145209047Y-84792619D02*
X144970952Y-84792619D01*
X144970952Y-84792619D02*
X144875714Y-84745000D01*
X144875714Y-84745000D02*
X144828095Y-84697380D01*
X146304285Y-83792619D02*
X145828095Y-83792619D01*
X145828095Y-83792619D02*
X145780476Y-84268809D01*
X145780476Y-84268809D02*
X145828095Y-84221190D01*
X145828095Y-84221190D02*
X145923333Y-84173571D01*
X145923333Y-84173571D02*
X146161428Y-84173571D01*
X146161428Y-84173571D02*
X146256666Y-84221190D01*
X146256666Y-84221190D02*
X146304285Y-84268809D01*
X146304285Y-84268809D02*
X146351904Y-84364047D01*
X146351904Y-84364047D02*
X146351904Y-84602142D01*
X146351904Y-84602142D02*
X146304285Y-84697380D01*
X146304285Y-84697380D02*
X146256666Y-84745000D01*
X146256666Y-84745000D02*
X146161428Y-84792619D01*
X146161428Y-84792619D02*
X145923333Y-84792619D01*
X145923333Y-84792619D02*
X145828095Y-84745000D01*
X145828095Y-84745000D02*
X145780476Y-84697380D01*
%TO.C,R30*%
X167037142Y-54692619D02*
X166703809Y-54216428D01*
X166465714Y-54692619D02*
X166465714Y-53692619D01*
X166465714Y-53692619D02*
X166846666Y-53692619D01*
X166846666Y-53692619D02*
X166941904Y-53740238D01*
X166941904Y-53740238D02*
X166989523Y-53787857D01*
X166989523Y-53787857D02*
X167037142Y-53883095D01*
X167037142Y-53883095D02*
X167037142Y-54025952D01*
X167037142Y-54025952D02*
X166989523Y-54121190D01*
X166989523Y-54121190D02*
X166941904Y-54168809D01*
X166941904Y-54168809D02*
X166846666Y-54216428D01*
X166846666Y-54216428D02*
X166465714Y-54216428D01*
X167370476Y-53692619D02*
X167989523Y-53692619D01*
X167989523Y-53692619D02*
X167656190Y-54073571D01*
X167656190Y-54073571D02*
X167799047Y-54073571D01*
X167799047Y-54073571D02*
X167894285Y-54121190D01*
X167894285Y-54121190D02*
X167941904Y-54168809D01*
X167941904Y-54168809D02*
X167989523Y-54264047D01*
X167989523Y-54264047D02*
X167989523Y-54502142D01*
X167989523Y-54502142D02*
X167941904Y-54597380D01*
X167941904Y-54597380D02*
X167894285Y-54645000D01*
X167894285Y-54645000D02*
X167799047Y-54692619D01*
X167799047Y-54692619D02*
X167513333Y-54692619D01*
X167513333Y-54692619D02*
X167418095Y-54645000D01*
X167418095Y-54645000D02*
X167370476Y-54597380D01*
X168608571Y-53692619D02*
X168703809Y-53692619D01*
X168703809Y-53692619D02*
X168799047Y-53740238D01*
X168799047Y-53740238D02*
X168846666Y-53787857D01*
X168846666Y-53787857D02*
X168894285Y-53883095D01*
X168894285Y-53883095D02*
X168941904Y-54073571D01*
X168941904Y-54073571D02*
X168941904Y-54311666D01*
X168941904Y-54311666D02*
X168894285Y-54502142D01*
X168894285Y-54502142D02*
X168846666Y-54597380D01*
X168846666Y-54597380D02*
X168799047Y-54645000D01*
X168799047Y-54645000D02*
X168703809Y-54692619D01*
X168703809Y-54692619D02*
X168608571Y-54692619D01*
X168608571Y-54692619D02*
X168513333Y-54645000D01*
X168513333Y-54645000D02*
X168465714Y-54597380D01*
X168465714Y-54597380D02*
X168418095Y-54502142D01*
X168418095Y-54502142D02*
X168370476Y-54311666D01*
X168370476Y-54311666D02*
X168370476Y-54073571D01*
X168370476Y-54073571D02*
X168418095Y-53883095D01*
X168418095Y-53883095D02*
X168465714Y-53787857D01*
X168465714Y-53787857D02*
X168513333Y-53740238D01*
X168513333Y-53740238D02*
X168608571Y-53692619D01*
%TO.C,R22*%
X145857142Y-57242619D02*
X145523809Y-56766428D01*
X145285714Y-57242619D02*
X145285714Y-56242619D01*
X145285714Y-56242619D02*
X145666666Y-56242619D01*
X145666666Y-56242619D02*
X145761904Y-56290238D01*
X145761904Y-56290238D02*
X145809523Y-56337857D01*
X145809523Y-56337857D02*
X145857142Y-56433095D01*
X145857142Y-56433095D02*
X145857142Y-56575952D01*
X145857142Y-56575952D02*
X145809523Y-56671190D01*
X145809523Y-56671190D02*
X145761904Y-56718809D01*
X145761904Y-56718809D02*
X145666666Y-56766428D01*
X145666666Y-56766428D02*
X145285714Y-56766428D01*
X146238095Y-56337857D02*
X146285714Y-56290238D01*
X146285714Y-56290238D02*
X146380952Y-56242619D01*
X146380952Y-56242619D02*
X146619047Y-56242619D01*
X146619047Y-56242619D02*
X146714285Y-56290238D01*
X146714285Y-56290238D02*
X146761904Y-56337857D01*
X146761904Y-56337857D02*
X146809523Y-56433095D01*
X146809523Y-56433095D02*
X146809523Y-56528333D01*
X146809523Y-56528333D02*
X146761904Y-56671190D01*
X146761904Y-56671190D02*
X146190476Y-57242619D01*
X146190476Y-57242619D02*
X146809523Y-57242619D01*
X147190476Y-56337857D02*
X147238095Y-56290238D01*
X147238095Y-56290238D02*
X147333333Y-56242619D01*
X147333333Y-56242619D02*
X147571428Y-56242619D01*
X147571428Y-56242619D02*
X147666666Y-56290238D01*
X147666666Y-56290238D02*
X147714285Y-56337857D01*
X147714285Y-56337857D02*
X147761904Y-56433095D01*
X147761904Y-56433095D02*
X147761904Y-56528333D01*
X147761904Y-56528333D02*
X147714285Y-56671190D01*
X147714285Y-56671190D02*
X147142857Y-57242619D01*
X147142857Y-57242619D02*
X147761904Y-57242619D01*
%TO.C,R62*%
X144547142Y-108692619D02*
X144213809Y-108216428D01*
X143975714Y-108692619D02*
X143975714Y-107692619D01*
X143975714Y-107692619D02*
X144356666Y-107692619D01*
X144356666Y-107692619D02*
X144451904Y-107740238D01*
X144451904Y-107740238D02*
X144499523Y-107787857D01*
X144499523Y-107787857D02*
X144547142Y-107883095D01*
X144547142Y-107883095D02*
X144547142Y-108025952D01*
X144547142Y-108025952D02*
X144499523Y-108121190D01*
X144499523Y-108121190D02*
X144451904Y-108168809D01*
X144451904Y-108168809D02*
X144356666Y-108216428D01*
X144356666Y-108216428D02*
X143975714Y-108216428D01*
X145404285Y-107692619D02*
X145213809Y-107692619D01*
X145213809Y-107692619D02*
X145118571Y-107740238D01*
X145118571Y-107740238D02*
X145070952Y-107787857D01*
X145070952Y-107787857D02*
X144975714Y-107930714D01*
X144975714Y-107930714D02*
X144928095Y-108121190D01*
X144928095Y-108121190D02*
X144928095Y-108502142D01*
X144928095Y-108502142D02*
X144975714Y-108597380D01*
X144975714Y-108597380D02*
X145023333Y-108645000D01*
X145023333Y-108645000D02*
X145118571Y-108692619D01*
X145118571Y-108692619D02*
X145309047Y-108692619D01*
X145309047Y-108692619D02*
X145404285Y-108645000D01*
X145404285Y-108645000D02*
X145451904Y-108597380D01*
X145451904Y-108597380D02*
X145499523Y-108502142D01*
X145499523Y-108502142D02*
X145499523Y-108264047D01*
X145499523Y-108264047D02*
X145451904Y-108168809D01*
X145451904Y-108168809D02*
X145404285Y-108121190D01*
X145404285Y-108121190D02*
X145309047Y-108073571D01*
X145309047Y-108073571D02*
X145118571Y-108073571D01*
X145118571Y-108073571D02*
X145023333Y-108121190D01*
X145023333Y-108121190D02*
X144975714Y-108168809D01*
X144975714Y-108168809D02*
X144928095Y-108264047D01*
X145880476Y-107787857D02*
X145928095Y-107740238D01*
X145928095Y-107740238D02*
X146023333Y-107692619D01*
X146023333Y-107692619D02*
X146261428Y-107692619D01*
X146261428Y-107692619D02*
X146356666Y-107740238D01*
X146356666Y-107740238D02*
X146404285Y-107787857D01*
X146404285Y-107787857D02*
X146451904Y-107883095D01*
X146451904Y-107883095D02*
X146451904Y-107978333D01*
X146451904Y-107978333D02*
X146404285Y-108121190D01*
X146404285Y-108121190D02*
X145832857Y-108692619D01*
X145832857Y-108692619D02*
X146451904Y-108692619D01*
%TO.C,R53*%
X122847142Y-108392619D02*
X122513809Y-107916428D01*
X122275714Y-108392619D02*
X122275714Y-107392619D01*
X122275714Y-107392619D02*
X122656666Y-107392619D01*
X122656666Y-107392619D02*
X122751904Y-107440238D01*
X122751904Y-107440238D02*
X122799523Y-107487857D01*
X122799523Y-107487857D02*
X122847142Y-107583095D01*
X122847142Y-107583095D02*
X122847142Y-107725952D01*
X122847142Y-107725952D02*
X122799523Y-107821190D01*
X122799523Y-107821190D02*
X122751904Y-107868809D01*
X122751904Y-107868809D02*
X122656666Y-107916428D01*
X122656666Y-107916428D02*
X122275714Y-107916428D01*
X123751904Y-107392619D02*
X123275714Y-107392619D01*
X123275714Y-107392619D02*
X123228095Y-107868809D01*
X123228095Y-107868809D02*
X123275714Y-107821190D01*
X123275714Y-107821190D02*
X123370952Y-107773571D01*
X123370952Y-107773571D02*
X123609047Y-107773571D01*
X123609047Y-107773571D02*
X123704285Y-107821190D01*
X123704285Y-107821190D02*
X123751904Y-107868809D01*
X123751904Y-107868809D02*
X123799523Y-107964047D01*
X123799523Y-107964047D02*
X123799523Y-108202142D01*
X123799523Y-108202142D02*
X123751904Y-108297380D01*
X123751904Y-108297380D02*
X123704285Y-108345000D01*
X123704285Y-108345000D02*
X123609047Y-108392619D01*
X123609047Y-108392619D02*
X123370952Y-108392619D01*
X123370952Y-108392619D02*
X123275714Y-108345000D01*
X123275714Y-108345000D02*
X123228095Y-108297380D01*
X124132857Y-107392619D02*
X124751904Y-107392619D01*
X124751904Y-107392619D02*
X124418571Y-107773571D01*
X124418571Y-107773571D02*
X124561428Y-107773571D01*
X124561428Y-107773571D02*
X124656666Y-107821190D01*
X124656666Y-107821190D02*
X124704285Y-107868809D01*
X124704285Y-107868809D02*
X124751904Y-107964047D01*
X124751904Y-107964047D02*
X124751904Y-108202142D01*
X124751904Y-108202142D02*
X124704285Y-108297380D01*
X124704285Y-108297380D02*
X124656666Y-108345000D01*
X124656666Y-108345000D02*
X124561428Y-108392619D01*
X124561428Y-108392619D02*
X124275714Y-108392619D01*
X124275714Y-108392619D02*
X124180476Y-108345000D01*
X124180476Y-108345000D02*
X124132857Y-108297380D01*
%TO.C,R60*%
X144447142Y-101892619D02*
X144113809Y-101416428D01*
X143875714Y-101892619D02*
X143875714Y-100892619D01*
X143875714Y-100892619D02*
X144256666Y-100892619D01*
X144256666Y-100892619D02*
X144351904Y-100940238D01*
X144351904Y-100940238D02*
X144399523Y-100987857D01*
X144399523Y-100987857D02*
X144447142Y-101083095D01*
X144447142Y-101083095D02*
X144447142Y-101225952D01*
X144447142Y-101225952D02*
X144399523Y-101321190D01*
X144399523Y-101321190D02*
X144351904Y-101368809D01*
X144351904Y-101368809D02*
X144256666Y-101416428D01*
X144256666Y-101416428D02*
X143875714Y-101416428D01*
X145304285Y-100892619D02*
X145113809Y-100892619D01*
X145113809Y-100892619D02*
X145018571Y-100940238D01*
X145018571Y-100940238D02*
X144970952Y-100987857D01*
X144970952Y-100987857D02*
X144875714Y-101130714D01*
X144875714Y-101130714D02*
X144828095Y-101321190D01*
X144828095Y-101321190D02*
X144828095Y-101702142D01*
X144828095Y-101702142D02*
X144875714Y-101797380D01*
X144875714Y-101797380D02*
X144923333Y-101845000D01*
X144923333Y-101845000D02*
X145018571Y-101892619D01*
X145018571Y-101892619D02*
X145209047Y-101892619D01*
X145209047Y-101892619D02*
X145304285Y-101845000D01*
X145304285Y-101845000D02*
X145351904Y-101797380D01*
X145351904Y-101797380D02*
X145399523Y-101702142D01*
X145399523Y-101702142D02*
X145399523Y-101464047D01*
X145399523Y-101464047D02*
X145351904Y-101368809D01*
X145351904Y-101368809D02*
X145304285Y-101321190D01*
X145304285Y-101321190D02*
X145209047Y-101273571D01*
X145209047Y-101273571D02*
X145018571Y-101273571D01*
X145018571Y-101273571D02*
X144923333Y-101321190D01*
X144923333Y-101321190D02*
X144875714Y-101368809D01*
X144875714Y-101368809D02*
X144828095Y-101464047D01*
X146018571Y-100892619D02*
X146113809Y-100892619D01*
X146113809Y-100892619D02*
X146209047Y-100940238D01*
X146209047Y-100940238D02*
X146256666Y-100987857D01*
X146256666Y-100987857D02*
X146304285Y-101083095D01*
X146304285Y-101083095D02*
X146351904Y-101273571D01*
X146351904Y-101273571D02*
X146351904Y-101511666D01*
X146351904Y-101511666D02*
X146304285Y-101702142D01*
X146304285Y-101702142D02*
X146256666Y-101797380D01*
X146256666Y-101797380D02*
X146209047Y-101845000D01*
X146209047Y-101845000D02*
X146113809Y-101892619D01*
X146113809Y-101892619D02*
X146018571Y-101892619D01*
X146018571Y-101892619D02*
X145923333Y-101845000D01*
X145923333Y-101845000D02*
X145875714Y-101797380D01*
X145875714Y-101797380D02*
X145828095Y-101702142D01*
X145828095Y-101702142D02*
X145780476Y-101511666D01*
X145780476Y-101511666D02*
X145780476Y-101273571D01*
X145780476Y-101273571D02*
X145828095Y-101083095D01*
X145828095Y-101083095D02*
X145875714Y-100987857D01*
X145875714Y-100987857D02*
X145923333Y-100940238D01*
X145923333Y-100940238D02*
X146018571Y-100892619D01*
%TO.C,R35*%
X167147142Y-71792619D02*
X166813809Y-71316428D01*
X166575714Y-71792619D02*
X166575714Y-70792619D01*
X166575714Y-70792619D02*
X166956666Y-70792619D01*
X166956666Y-70792619D02*
X167051904Y-70840238D01*
X167051904Y-70840238D02*
X167099523Y-70887857D01*
X167099523Y-70887857D02*
X167147142Y-70983095D01*
X167147142Y-70983095D02*
X167147142Y-71125952D01*
X167147142Y-71125952D02*
X167099523Y-71221190D01*
X167099523Y-71221190D02*
X167051904Y-71268809D01*
X167051904Y-71268809D02*
X166956666Y-71316428D01*
X166956666Y-71316428D02*
X166575714Y-71316428D01*
X167480476Y-70792619D02*
X168099523Y-70792619D01*
X168099523Y-70792619D02*
X167766190Y-71173571D01*
X167766190Y-71173571D02*
X167909047Y-71173571D01*
X167909047Y-71173571D02*
X168004285Y-71221190D01*
X168004285Y-71221190D02*
X168051904Y-71268809D01*
X168051904Y-71268809D02*
X168099523Y-71364047D01*
X168099523Y-71364047D02*
X168099523Y-71602142D01*
X168099523Y-71602142D02*
X168051904Y-71697380D01*
X168051904Y-71697380D02*
X168004285Y-71745000D01*
X168004285Y-71745000D02*
X167909047Y-71792619D01*
X167909047Y-71792619D02*
X167623333Y-71792619D01*
X167623333Y-71792619D02*
X167528095Y-71745000D01*
X167528095Y-71745000D02*
X167480476Y-71697380D01*
X169004285Y-70792619D02*
X168528095Y-70792619D01*
X168528095Y-70792619D02*
X168480476Y-71268809D01*
X168480476Y-71268809D02*
X168528095Y-71221190D01*
X168528095Y-71221190D02*
X168623333Y-71173571D01*
X168623333Y-71173571D02*
X168861428Y-71173571D01*
X168861428Y-71173571D02*
X168956666Y-71221190D01*
X168956666Y-71221190D02*
X169004285Y-71268809D01*
X169004285Y-71268809D02*
X169051904Y-71364047D01*
X169051904Y-71364047D02*
X169051904Y-71602142D01*
X169051904Y-71602142D02*
X169004285Y-71697380D01*
X169004285Y-71697380D02*
X168956666Y-71745000D01*
X168956666Y-71745000D02*
X168861428Y-71792619D01*
X168861428Y-71792619D02*
X168623333Y-71792619D01*
X168623333Y-71792619D02*
X168528095Y-71745000D01*
X168528095Y-71745000D02*
X168480476Y-71697380D01*
%TO.C,R49*%
X122847142Y-94992619D02*
X122513809Y-94516428D01*
X122275714Y-94992619D02*
X122275714Y-93992619D01*
X122275714Y-93992619D02*
X122656666Y-93992619D01*
X122656666Y-93992619D02*
X122751904Y-94040238D01*
X122751904Y-94040238D02*
X122799523Y-94087857D01*
X122799523Y-94087857D02*
X122847142Y-94183095D01*
X122847142Y-94183095D02*
X122847142Y-94325952D01*
X122847142Y-94325952D02*
X122799523Y-94421190D01*
X122799523Y-94421190D02*
X122751904Y-94468809D01*
X122751904Y-94468809D02*
X122656666Y-94516428D01*
X122656666Y-94516428D02*
X122275714Y-94516428D01*
X123704285Y-94325952D02*
X123704285Y-94992619D01*
X123466190Y-93945000D02*
X123228095Y-94659285D01*
X123228095Y-94659285D02*
X123847142Y-94659285D01*
X124275714Y-94992619D02*
X124466190Y-94992619D01*
X124466190Y-94992619D02*
X124561428Y-94945000D01*
X124561428Y-94945000D02*
X124609047Y-94897380D01*
X124609047Y-94897380D02*
X124704285Y-94754523D01*
X124704285Y-94754523D02*
X124751904Y-94564047D01*
X124751904Y-94564047D02*
X124751904Y-94183095D01*
X124751904Y-94183095D02*
X124704285Y-94087857D01*
X124704285Y-94087857D02*
X124656666Y-94040238D01*
X124656666Y-94040238D02*
X124561428Y-93992619D01*
X124561428Y-93992619D02*
X124370952Y-93992619D01*
X124370952Y-93992619D02*
X124275714Y-94040238D01*
X124275714Y-94040238D02*
X124228095Y-94087857D01*
X124228095Y-94087857D02*
X124180476Y-94183095D01*
X124180476Y-94183095D02*
X124180476Y-94421190D01*
X124180476Y-94421190D02*
X124228095Y-94516428D01*
X124228095Y-94516428D02*
X124275714Y-94564047D01*
X124275714Y-94564047D02*
X124370952Y-94611666D01*
X124370952Y-94611666D02*
X124561428Y-94611666D01*
X124561428Y-94611666D02*
X124656666Y-94564047D01*
X124656666Y-94564047D02*
X124704285Y-94516428D01*
X124704285Y-94516428D02*
X124751904Y-94421190D01*
%TO.C,R47*%
X122747142Y-88192619D02*
X122413809Y-87716428D01*
X122175714Y-88192619D02*
X122175714Y-87192619D01*
X122175714Y-87192619D02*
X122556666Y-87192619D01*
X122556666Y-87192619D02*
X122651904Y-87240238D01*
X122651904Y-87240238D02*
X122699523Y-87287857D01*
X122699523Y-87287857D02*
X122747142Y-87383095D01*
X122747142Y-87383095D02*
X122747142Y-87525952D01*
X122747142Y-87525952D02*
X122699523Y-87621190D01*
X122699523Y-87621190D02*
X122651904Y-87668809D01*
X122651904Y-87668809D02*
X122556666Y-87716428D01*
X122556666Y-87716428D02*
X122175714Y-87716428D01*
X123604285Y-87525952D02*
X123604285Y-88192619D01*
X123366190Y-87145000D02*
X123128095Y-87859285D01*
X123128095Y-87859285D02*
X123747142Y-87859285D01*
X124032857Y-87192619D02*
X124699523Y-87192619D01*
X124699523Y-87192619D02*
X124270952Y-88192619D01*
%TO.C,R9*%
X107923333Y-74492619D02*
X107590000Y-74016428D01*
X107351905Y-74492619D02*
X107351905Y-73492619D01*
X107351905Y-73492619D02*
X107732857Y-73492619D01*
X107732857Y-73492619D02*
X107828095Y-73540238D01*
X107828095Y-73540238D02*
X107875714Y-73587857D01*
X107875714Y-73587857D02*
X107923333Y-73683095D01*
X107923333Y-73683095D02*
X107923333Y-73825952D01*
X107923333Y-73825952D02*
X107875714Y-73921190D01*
X107875714Y-73921190D02*
X107828095Y-73968809D01*
X107828095Y-73968809D02*
X107732857Y-74016428D01*
X107732857Y-74016428D02*
X107351905Y-74016428D01*
X108399524Y-74492619D02*
X108590000Y-74492619D01*
X108590000Y-74492619D02*
X108685238Y-74445000D01*
X108685238Y-74445000D02*
X108732857Y-74397380D01*
X108732857Y-74397380D02*
X108828095Y-74254523D01*
X108828095Y-74254523D02*
X108875714Y-74064047D01*
X108875714Y-74064047D02*
X108875714Y-73683095D01*
X108875714Y-73683095D02*
X108828095Y-73587857D01*
X108828095Y-73587857D02*
X108780476Y-73540238D01*
X108780476Y-73540238D02*
X108685238Y-73492619D01*
X108685238Y-73492619D02*
X108494762Y-73492619D01*
X108494762Y-73492619D02*
X108399524Y-73540238D01*
X108399524Y-73540238D02*
X108351905Y-73587857D01*
X108351905Y-73587857D02*
X108304286Y-73683095D01*
X108304286Y-73683095D02*
X108304286Y-73921190D01*
X108304286Y-73921190D02*
X108351905Y-74016428D01*
X108351905Y-74016428D02*
X108399524Y-74064047D01*
X108399524Y-74064047D02*
X108494762Y-74111666D01*
X108494762Y-74111666D02*
X108685238Y-74111666D01*
X108685238Y-74111666D02*
X108780476Y-74064047D01*
X108780476Y-74064047D02*
X108828095Y-74016428D01*
X108828095Y-74016428D02*
X108875714Y-73921190D01*
%TO.C,R21*%
X145807142Y-53742619D02*
X145473809Y-53266428D01*
X145235714Y-53742619D02*
X145235714Y-52742619D01*
X145235714Y-52742619D02*
X145616666Y-52742619D01*
X145616666Y-52742619D02*
X145711904Y-52790238D01*
X145711904Y-52790238D02*
X145759523Y-52837857D01*
X145759523Y-52837857D02*
X145807142Y-52933095D01*
X145807142Y-52933095D02*
X145807142Y-53075952D01*
X145807142Y-53075952D02*
X145759523Y-53171190D01*
X145759523Y-53171190D02*
X145711904Y-53218809D01*
X145711904Y-53218809D02*
X145616666Y-53266428D01*
X145616666Y-53266428D02*
X145235714Y-53266428D01*
X146188095Y-52837857D02*
X146235714Y-52790238D01*
X146235714Y-52790238D02*
X146330952Y-52742619D01*
X146330952Y-52742619D02*
X146569047Y-52742619D01*
X146569047Y-52742619D02*
X146664285Y-52790238D01*
X146664285Y-52790238D02*
X146711904Y-52837857D01*
X146711904Y-52837857D02*
X146759523Y-52933095D01*
X146759523Y-52933095D02*
X146759523Y-53028333D01*
X146759523Y-53028333D02*
X146711904Y-53171190D01*
X146711904Y-53171190D02*
X146140476Y-53742619D01*
X146140476Y-53742619D02*
X146759523Y-53742619D01*
X147711904Y-53742619D02*
X147140476Y-53742619D01*
X147426190Y-53742619D02*
X147426190Y-52742619D01*
X147426190Y-52742619D02*
X147330952Y-52885476D01*
X147330952Y-52885476D02*
X147235714Y-52980714D01*
X147235714Y-52980714D02*
X147140476Y-53028333D01*
%TO.C,R34*%
X167037142Y-68492619D02*
X166703809Y-68016428D01*
X166465714Y-68492619D02*
X166465714Y-67492619D01*
X166465714Y-67492619D02*
X166846666Y-67492619D01*
X166846666Y-67492619D02*
X166941904Y-67540238D01*
X166941904Y-67540238D02*
X166989523Y-67587857D01*
X166989523Y-67587857D02*
X167037142Y-67683095D01*
X167037142Y-67683095D02*
X167037142Y-67825952D01*
X167037142Y-67825952D02*
X166989523Y-67921190D01*
X166989523Y-67921190D02*
X166941904Y-67968809D01*
X166941904Y-67968809D02*
X166846666Y-68016428D01*
X166846666Y-68016428D02*
X166465714Y-68016428D01*
X167370476Y-67492619D02*
X167989523Y-67492619D01*
X167989523Y-67492619D02*
X167656190Y-67873571D01*
X167656190Y-67873571D02*
X167799047Y-67873571D01*
X167799047Y-67873571D02*
X167894285Y-67921190D01*
X167894285Y-67921190D02*
X167941904Y-67968809D01*
X167941904Y-67968809D02*
X167989523Y-68064047D01*
X167989523Y-68064047D02*
X167989523Y-68302142D01*
X167989523Y-68302142D02*
X167941904Y-68397380D01*
X167941904Y-68397380D02*
X167894285Y-68445000D01*
X167894285Y-68445000D02*
X167799047Y-68492619D01*
X167799047Y-68492619D02*
X167513333Y-68492619D01*
X167513333Y-68492619D02*
X167418095Y-68445000D01*
X167418095Y-68445000D02*
X167370476Y-68397380D01*
X168846666Y-67825952D02*
X168846666Y-68492619D01*
X168608571Y-67445000D02*
X168370476Y-68159285D01*
X168370476Y-68159285D02*
X168989523Y-68159285D01*
%TO.C,J3*%
X136161666Y-46532619D02*
X136161666Y-47246904D01*
X136161666Y-47246904D02*
X136114047Y-47389761D01*
X136114047Y-47389761D02*
X136018809Y-47485000D01*
X136018809Y-47485000D02*
X135875952Y-47532619D01*
X135875952Y-47532619D02*
X135780714Y-47532619D01*
X136542619Y-46532619D02*
X137161666Y-46532619D01*
X137161666Y-46532619D02*
X136828333Y-46913571D01*
X136828333Y-46913571D02*
X136971190Y-46913571D01*
X136971190Y-46913571D02*
X137066428Y-46961190D01*
X137066428Y-46961190D02*
X137114047Y-47008809D01*
X137114047Y-47008809D02*
X137161666Y-47104047D01*
X137161666Y-47104047D02*
X137161666Y-47342142D01*
X137161666Y-47342142D02*
X137114047Y-47437380D01*
X137114047Y-47437380D02*
X137066428Y-47485000D01*
X137066428Y-47485000D02*
X136971190Y-47532619D01*
X136971190Y-47532619D02*
X136685476Y-47532619D01*
X136685476Y-47532619D02*
X136590238Y-47485000D01*
X136590238Y-47485000D02*
X136542619Y-47437380D01*
%TO.C,R14*%
X127157142Y-62492619D02*
X126823809Y-62016428D01*
X126585714Y-62492619D02*
X126585714Y-61492619D01*
X126585714Y-61492619D02*
X126966666Y-61492619D01*
X126966666Y-61492619D02*
X127061904Y-61540238D01*
X127061904Y-61540238D02*
X127109523Y-61587857D01*
X127109523Y-61587857D02*
X127157142Y-61683095D01*
X127157142Y-61683095D02*
X127157142Y-61825952D01*
X127157142Y-61825952D02*
X127109523Y-61921190D01*
X127109523Y-61921190D02*
X127061904Y-61968809D01*
X127061904Y-61968809D02*
X126966666Y-62016428D01*
X126966666Y-62016428D02*
X126585714Y-62016428D01*
X128109523Y-62492619D02*
X127538095Y-62492619D01*
X127823809Y-62492619D02*
X127823809Y-61492619D01*
X127823809Y-61492619D02*
X127728571Y-61635476D01*
X127728571Y-61635476D02*
X127633333Y-61730714D01*
X127633333Y-61730714D02*
X127538095Y-61778333D01*
X128966666Y-61825952D02*
X128966666Y-62492619D01*
X128728571Y-61445000D02*
X128490476Y-62159285D01*
X128490476Y-62159285D02*
X129109523Y-62159285D01*
%TO.C,R50*%
X122847142Y-98392619D02*
X122513809Y-97916428D01*
X122275714Y-98392619D02*
X122275714Y-97392619D01*
X122275714Y-97392619D02*
X122656666Y-97392619D01*
X122656666Y-97392619D02*
X122751904Y-97440238D01*
X122751904Y-97440238D02*
X122799523Y-97487857D01*
X122799523Y-97487857D02*
X122847142Y-97583095D01*
X122847142Y-97583095D02*
X122847142Y-97725952D01*
X122847142Y-97725952D02*
X122799523Y-97821190D01*
X122799523Y-97821190D02*
X122751904Y-97868809D01*
X122751904Y-97868809D02*
X122656666Y-97916428D01*
X122656666Y-97916428D02*
X122275714Y-97916428D01*
X123751904Y-97392619D02*
X123275714Y-97392619D01*
X123275714Y-97392619D02*
X123228095Y-97868809D01*
X123228095Y-97868809D02*
X123275714Y-97821190D01*
X123275714Y-97821190D02*
X123370952Y-97773571D01*
X123370952Y-97773571D02*
X123609047Y-97773571D01*
X123609047Y-97773571D02*
X123704285Y-97821190D01*
X123704285Y-97821190D02*
X123751904Y-97868809D01*
X123751904Y-97868809D02*
X123799523Y-97964047D01*
X123799523Y-97964047D02*
X123799523Y-98202142D01*
X123799523Y-98202142D02*
X123751904Y-98297380D01*
X123751904Y-98297380D02*
X123704285Y-98345000D01*
X123704285Y-98345000D02*
X123609047Y-98392619D01*
X123609047Y-98392619D02*
X123370952Y-98392619D01*
X123370952Y-98392619D02*
X123275714Y-98345000D01*
X123275714Y-98345000D02*
X123228095Y-98297380D01*
X124418571Y-97392619D02*
X124513809Y-97392619D01*
X124513809Y-97392619D02*
X124609047Y-97440238D01*
X124609047Y-97440238D02*
X124656666Y-97487857D01*
X124656666Y-97487857D02*
X124704285Y-97583095D01*
X124704285Y-97583095D02*
X124751904Y-97773571D01*
X124751904Y-97773571D02*
X124751904Y-98011666D01*
X124751904Y-98011666D02*
X124704285Y-98202142D01*
X124704285Y-98202142D02*
X124656666Y-98297380D01*
X124656666Y-98297380D02*
X124609047Y-98345000D01*
X124609047Y-98345000D02*
X124513809Y-98392619D01*
X124513809Y-98392619D02*
X124418571Y-98392619D01*
X124418571Y-98392619D02*
X124323333Y-98345000D01*
X124323333Y-98345000D02*
X124275714Y-98297380D01*
X124275714Y-98297380D02*
X124228095Y-98202142D01*
X124228095Y-98202142D02*
X124180476Y-98011666D01*
X124180476Y-98011666D02*
X124180476Y-97773571D01*
X124180476Y-97773571D02*
X124228095Y-97583095D01*
X124228095Y-97583095D02*
X124275714Y-97487857D01*
X124275714Y-97487857D02*
X124323333Y-97440238D01*
X124323333Y-97440238D02*
X124418571Y-97392619D01*
%TO.C,J9*%
X97761666Y-46182619D02*
X97761666Y-46896904D01*
X97761666Y-46896904D02*
X97714047Y-47039761D01*
X97714047Y-47039761D02*
X97618809Y-47135000D01*
X97618809Y-47135000D02*
X97475952Y-47182619D01*
X97475952Y-47182619D02*
X97380714Y-47182619D01*
X98285476Y-47182619D02*
X98475952Y-47182619D01*
X98475952Y-47182619D02*
X98571190Y-47135000D01*
X98571190Y-47135000D02*
X98618809Y-47087380D01*
X98618809Y-47087380D02*
X98714047Y-46944523D01*
X98714047Y-46944523D02*
X98761666Y-46754047D01*
X98761666Y-46754047D02*
X98761666Y-46373095D01*
X98761666Y-46373095D02*
X98714047Y-46277857D01*
X98714047Y-46277857D02*
X98666428Y-46230238D01*
X98666428Y-46230238D02*
X98571190Y-46182619D01*
X98571190Y-46182619D02*
X98380714Y-46182619D01*
X98380714Y-46182619D02*
X98285476Y-46230238D01*
X98285476Y-46230238D02*
X98237857Y-46277857D01*
X98237857Y-46277857D02*
X98190238Y-46373095D01*
X98190238Y-46373095D02*
X98190238Y-46611190D01*
X98190238Y-46611190D02*
X98237857Y-46706428D01*
X98237857Y-46706428D02*
X98285476Y-46754047D01*
X98285476Y-46754047D02*
X98380714Y-46801666D01*
X98380714Y-46801666D02*
X98571190Y-46801666D01*
X98571190Y-46801666D02*
X98666428Y-46754047D01*
X98666428Y-46754047D02*
X98714047Y-46706428D01*
X98714047Y-46706428D02*
X98761666Y-46611190D01*
%TO.C,R27*%
X146147142Y-74942619D02*
X145813809Y-74466428D01*
X145575714Y-74942619D02*
X145575714Y-73942619D01*
X145575714Y-73942619D02*
X145956666Y-73942619D01*
X145956666Y-73942619D02*
X146051904Y-73990238D01*
X146051904Y-73990238D02*
X146099523Y-74037857D01*
X146099523Y-74037857D02*
X146147142Y-74133095D01*
X146147142Y-74133095D02*
X146147142Y-74275952D01*
X146147142Y-74275952D02*
X146099523Y-74371190D01*
X146099523Y-74371190D02*
X146051904Y-74418809D01*
X146051904Y-74418809D02*
X145956666Y-74466428D01*
X145956666Y-74466428D02*
X145575714Y-74466428D01*
X146528095Y-74037857D02*
X146575714Y-73990238D01*
X146575714Y-73990238D02*
X146670952Y-73942619D01*
X146670952Y-73942619D02*
X146909047Y-73942619D01*
X146909047Y-73942619D02*
X147004285Y-73990238D01*
X147004285Y-73990238D02*
X147051904Y-74037857D01*
X147051904Y-74037857D02*
X147099523Y-74133095D01*
X147099523Y-74133095D02*
X147099523Y-74228333D01*
X147099523Y-74228333D02*
X147051904Y-74371190D01*
X147051904Y-74371190D02*
X146480476Y-74942619D01*
X146480476Y-74942619D02*
X147099523Y-74942619D01*
X147432857Y-73942619D02*
X148099523Y-73942619D01*
X148099523Y-73942619D02*
X147670952Y-74942619D01*
%TO.C,R12*%
X127057142Y-55192619D02*
X126723809Y-54716428D01*
X126485714Y-55192619D02*
X126485714Y-54192619D01*
X126485714Y-54192619D02*
X126866666Y-54192619D01*
X126866666Y-54192619D02*
X126961904Y-54240238D01*
X126961904Y-54240238D02*
X127009523Y-54287857D01*
X127009523Y-54287857D02*
X127057142Y-54383095D01*
X127057142Y-54383095D02*
X127057142Y-54525952D01*
X127057142Y-54525952D02*
X127009523Y-54621190D01*
X127009523Y-54621190D02*
X126961904Y-54668809D01*
X126961904Y-54668809D02*
X126866666Y-54716428D01*
X126866666Y-54716428D02*
X126485714Y-54716428D01*
X128009523Y-55192619D02*
X127438095Y-55192619D01*
X127723809Y-55192619D02*
X127723809Y-54192619D01*
X127723809Y-54192619D02*
X127628571Y-54335476D01*
X127628571Y-54335476D02*
X127533333Y-54430714D01*
X127533333Y-54430714D02*
X127438095Y-54478333D01*
X128390476Y-54287857D02*
X128438095Y-54240238D01*
X128438095Y-54240238D02*
X128533333Y-54192619D01*
X128533333Y-54192619D02*
X128771428Y-54192619D01*
X128771428Y-54192619D02*
X128866666Y-54240238D01*
X128866666Y-54240238D02*
X128914285Y-54287857D01*
X128914285Y-54287857D02*
X128961904Y-54383095D01*
X128961904Y-54383095D02*
X128961904Y-54478333D01*
X128961904Y-54478333D02*
X128914285Y-54621190D01*
X128914285Y-54621190D02*
X128342857Y-55192619D01*
X128342857Y-55192619D02*
X128961904Y-55192619D01*
%TO.C,J7*%
X157996666Y-87912619D02*
X157996666Y-88626904D01*
X157996666Y-88626904D02*
X157949047Y-88769761D01*
X157949047Y-88769761D02*
X157853809Y-88865000D01*
X157853809Y-88865000D02*
X157710952Y-88912619D01*
X157710952Y-88912619D02*
X157615714Y-88912619D01*
X158377619Y-87912619D02*
X159044285Y-87912619D01*
X159044285Y-87912619D02*
X158615714Y-88912619D01*
D11*
%TO.C,R16*%
X124530000Y-70530000D02*
X131070000Y-70530000D01*
X124530000Y-70860000D02*
X124530000Y-70530000D01*
X124530000Y-72940000D02*
X124530000Y-73270000D01*
X124530000Y-73270000D02*
X131070000Y-73270000D01*
X131070000Y-70530000D02*
X131070000Y-70860000D01*
X131070000Y-73270000D02*
X131070000Y-72940000D01*
%TO.C,R3*%
X104780000Y-54930000D02*
X111320000Y-54930000D01*
X104780000Y-55260000D02*
X104780000Y-54930000D01*
X104780000Y-57340000D02*
X104780000Y-57670000D01*
X104780000Y-57670000D02*
X111320000Y-57670000D01*
X111320000Y-54930000D02*
X111320000Y-55260000D01*
X111320000Y-57670000D02*
X111320000Y-57340000D01*
%TO.C,R54*%
X120220000Y-112430000D02*
X126760000Y-112430000D01*
X120220000Y-112760000D02*
X120220000Y-112430000D01*
X120220000Y-114840000D02*
X120220000Y-115170000D01*
X120220000Y-115170000D02*
X126760000Y-115170000D01*
X126760000Y-112430000D02*
X126760000Y-112760000D01*
X126760000Y-115170000D02*
X126760000Y-114840000D01*
%TO.C,R15*%
X124530000Y-66930000D02*
X131070000Y-66930000D01*
X124530000Y-67260000D02*
X124530000Y-66930000D01*
X124530000Y-69340000D02*
X124530000Y-69670000D01*
X124530000Y-69670000D02*
X131070000Y-69670000D01*
X131070000Y-66930000D02*
X131070000Y-67260000D01*
X131070000Y-69670000D02*
X131070000Y-69340000D01*
%TO.C,J2*%
X115145000Y-48090000D02*
X116475000Y-48090000D01*
X115145000Y-49420000D02*
X115145000Y-48090000D01*
X115145000Y-50690000D02*
X115145000Y-73610000D01*
X115145000Y-50690000D02*
X117745000Y-50690000D01*
X115145000Y-73610000D02*
X120345000Y-73610000D01*
X117745000Y-48090000D02*
X120345000Y-48090000D01*
X117745000Y-50690000D02*
X117745000Y-48090000D01*
X120345000Y-48090000D02*
X120345000Y-73610000D01*
%TO.C,R13*%
X124530000Y-59330000D02*
X131070000Y-59330000D01*
X124530000Y-59660000D02*
X124530000Y-59330000D01*
X124530000Y-61740000D02*
X124530000Y-62070000D01*
X124530000Y-62070000D02*
X131070000Y-62070000D01*
X131070000Y-59330000D02*
X131070000Y-59660000D01*
X131070000Y-62070000D02*
X131070000Y-61740000D01*
%TO.C,R1*%
X104780000Y-48300000D02*
X111320000Y-48300000D01*
X104780000Y-48630000D02*
X104780000Y-48300000D01*
X104780000Y-50710000D02*
X104780000Y-51040000D01*
X104780000Y-51040000D02*
X111320000Y-51040000D01*
X111320000Y-48300000D02*
X111320000Y-48630000D01*
X111320000Y-51040000D02*
X111320000Y-50710000D01*
%TO.C,R29*%
X164420000Y-51730000D02*
X170960000Y-51730000D01*
X164420000Y-52060000D02*
X164420000Y-51730000D01*
X164420000Y-54140000D02*
X164420000Y-54470000D01*
X164420000Y-54470000D02*
X170960000Y-54470000D01*
X170960000Y-51730000D02*
X170960000Y-52060000D01*
X170960000Y-54470000D02*
X170960000Y-54140000D01*
%TO.C,R36*%
X164520000Y-75630000D02*
X171060000Y-75630000D01*
X164520000Y-75960000D02*
X164520000Y-75630000D01*
X164520000Y-78040000D02*
X164520000Y-78370000D01*
X164520000Y-78370000D02*
X171060000Y-78370000D01*
X171060000Y-75630000D02*
X171060000Y-75960000D01*
X171060000Y-78370000D02*
X171060000Y-78040000D01*
%TO.C,R46*%
X120120000Y-85330000D02*
X126660000Y-85330000D01*
X120120000Y-85660000D02*
X120120000Y-85330000D01*
X120120000Y-87740000D02*
X120120000Y-88070000D01*
X120120000Y-88070000D02*
X126660000Y-88070000D01*
X126660000Y-85330000D02*
X126660000Y-85660000D01*
X126660000Y-88070000D02*
X126660000Y-87740000D01*
%TO.C,R63*%
X141920000Y-112630000D02*
X148460000Y-112630000D01*
X141920000Y-112960000D02*
X141920000Y-112630000D01*
X141920000Y-115040000D02*
X141920000Y-115370000D01*
X141920000Y-115370000D02*
X148460000Y-115370000D01*
X148460000Y-112630000D02*
X148460000Y-112960000D01*
X148460000Y-115370000D02*
X148460000Y-115040000D01*
%TO.C,R28*%
X164410000Y-48305000D02*
X170950000Y-48305000D01*
X164410000Y-48635000D02*
X164410000Y-48305000D01*
X164410000Y-50715000D02*
X164410000Y-51045000D01*
X164410000Y-51045000D02*
X170950000Y-51045000D01*
X170950000Y-48305000D02*
X170950000Y-48635000D01*
X170950000Y-51045000D02*
X170950000Y-50715000D01*
%TO.C,R56*%
X141820000Y-88730000D02*
X148360000Y-88730000D01*
X141820000Y-89060000D02*
X141820000Y-88730000D01*
X141820000Y-91140000D02*
X141820000Y-91470000D01*
X141820000Y-91470000D02*
X148360000Y-91470000D01*
X148360000Y-88730000D02*
X148360000Y-89060000D01*
X148360000Y-91470000D02*
X148360000Y-91140000D01*
%TO.C,R43*%
X97520000Y-105630000D02*
X104060000Y-105630000D01*
X97520000Y-105960000D02*
X97520000Y-105630000D01*
X97520000Y-108040000D02*
X97520000Y-108370000D01*
X97520000Y-108370000D02*
X104060000Y-108370000D01*
X104060000Y-105630000D02*
X104060000Y-105960000D01*
X104060000Y-108370000D02*
X104060000Y-108040000D01*
%TO.C,R2*%
X104780000Y-51530000D02*
X111320000Y-51530000D01*
X104780000Y-51860000D02*
X104780000Y-51530000D01*
X104780000Y-53940000D02*
X104780000Y-54270000D01*
X104780000Y-54270000D02*
X111320000Y-54270000D01*
X111320000Y-51530000D02*
X111320000Y-51860000D01*
X111320000Y-54270000D02*
X111320000Y-53940000D01*
%TO.C,R4*%
X104780000Y-58330000D02*
X111320000Y-58330000D01*
X104780000Y-58660000D02*
X104780000Y-58330000D01*
X104780000Y-60740000D02*
X104780000Y-61070000D01*
X104780000Y-61070000D02*
X111320000Y-61070000D01*
X111320000Y-58330000D02*
X111320000Y-58660000D01*
X111320000Y-61070000D02*
X111320000Y-60740000D01*
%TO.C,R32*%
X164420000Y-62230000D02*
X170960000Y-62230000D01*
X164420000Y-62560000D02*
X164420000Y-62230000D01*
X164420000Y-64640000D02*
X164420000Y-64970000D01*
X164420000Y-64970000D02*
X170960000Y-64970000D01*
X170960000Y-62230000D02*
X170960000Y-62560000D01*
X170960000Y-64970000D02*
X170960000Y-64640000D01*
%TO.C,R58*%
X141845000Y-95630000D02*
X148385000Y-95630000D01*
X141845000Y-95960000D02*
X141845000Y-95630000D01*
X141845000Y-98040000D02*
X141845000Y-98370000D01*
X141845000Y-98370000D02*
X148385000Y-98370000D01*
X148385000Y-95630000D02*
X148385000Y-95960000D01*
X148385000Y-98370000D02*
X148385000Y-98040000D01*
%TO.C,R19*%
X143180000Y-48505000D02*
X149720000Y-48505000D01*
X143180000Y-48835000D02*
X143180000Y-48505000D01*
X143180000Y-50915000D02*
X143180000Y-51245000D01*
X143180000Y-51245000D02*
X149720000Y-51245000D01*
X149720000Y-48505000D02*
X149720000Y-48835000D01*
X149720000Y-51245000D02*
X149720000Y-50915000D01*
%TO.C,R6*%
X104720000Y-65130000D02*
X111260000Y-65130000D01*
X104720000Y-65460000D02*
X104720000Y-65130000D01*
X104720000Y-67540000D02*
X104720000Y-67870000D01*
X104720000Y-67870000D02*
X111260000Y-67870000D01*
X111260000Y-65130000D02*
X111260000Y-65460000D01*
X111260000Y-67870000D02*
X111260000Y-67540000D01*
%TO.C,R24*%
X143320000Y-66130000D02*
X149860000Y-66130000D01*
X143320000Y-66460000D02*
X143320000Y-66130000D01*
X143320000Y-68540000D02*
X143320000Y-68870000D01*
X143320000Y-68870000D02*
X149860000Y-68870000D01*
X149860000Y-66130000D02*
X149860000Y-66460000D01*
X149860000Y-68870000D02*
X149860000Y-68540000D01*
%TO.C,R57*%
X141820000Y-92130000D02*
X148360000Y-92130000D01*
X141820000Y-92460000D02*
X141820000Y-92130000D01*
X141820000Y-94540000D02*
X141820000Y-94870000D01*
X141820000Y-94870000D02*
X148360000Y-94870000D01*
X148360000Y-92130000D02*
X148360000Y-92460000D01*
X148360000Y-94870000D02*
X148360000Y-94540000D01*
%TO.C,J1*%
X165140000Y-81600000D02*
X164300000Y-81600000D01*
X164300000Y-81600000D02*
X164300000Y-82200000D01*
X172260000Y-81840000D02*
X164539000Y-81840000D01*
X172260000Y-81840000D02*
X172260000Y-91960000D01*
X170500000Y-81840000D02*
X170500000Y-91960000D01*
X165800000Y-81840000D02*
X165800000Y-91960000D01*
X165200000Y-81840000D02*
X165200000Y-91960000D01*
X164539000Y-81840000D02*
X164539000Y-91960000D01*
X167124000Y-88220000D02*
X167031000Y-88126000D01*
X166884000Y-88390000D02*
X166826000Y-88331000D01*
X169375000Y-90470000D02*
X169316000Y-90411000D01*
X169169000Y-90675000D02*
X169076000Y-90581000D01*
X172260000Y-91960000D02*
X164539000Y-91960000D01*
X168889000Y-82916000D02*
G75*
G03*
X167310911Y-82916047I-789000J-1483995D01*
G01*
X169584000Y-85189000D02*
G75*
G03*
X169583953Y-83610911I-1483995J789000D01*
G01*
X166616001Y-83611000D02*
G75*
G03*
X166419551Y-84429383I1483994J-788998D01*
G01*
X166420001Y-84400000D02*
G75*
G03*
X166616649Y-85188712I1679999J0D01*
G01*
X167311000Y-85884000D02*
G75*
G03*
X168889089Y-85883952I789000J1484000D01*
G01*
X171650000Y-84400000D02*
G75*
G03*
X171650000Y-84400000I-550000J0D01*
G01*
X171650000Y-89400000D02*
G75*
G03*
X171650000Y-89400000I-550000J0D01*
G01*
X169780000Y-89400000D02*
G75*
G03*
X169780000Y-89400000I-1680000J0D01*
G01*
%TO.C,R7*%
X104720000Y-68330000D02*
X111260000Y-68330000D01*
X104720000Y-68660000D02*
X104720000Y-68330000D01*
X104720000Y-70740000D02*
X104720000Y-71070000D01*
X104720000Y-71070000D02*
X111260000Y-71070000D01*
X111260000Y-68330000D02*
X111260000Y-68660000D01*
X111260000Y-71070000D02*
X111260000Y-70740000D01*
%TO.C,R44*%
X97620000Y-109230000D02*
X104160000Y-109230000D01*
X97620000Y-109560000D02*
X97620000Y-109230000D01*
X97620000Y-111640000D02*
X97620000Y-111970000D01*
X97620000Y-111970000D02*
X104160000Y-111970000D01*
X104160000Y-109230000D02*
X104160000Y-109560000D01*
X104160000Y-111970000D02*
X104160000Y-111640000D01*
%TO.C,R59*%
X141820000Y-99030000D02*
X148360000Y-99030000D01*
X141820000Y-99360000D02*
X141820000Y-99030000D01*
X141820000Y-101440000D02*
X141820000Y-101770000D01*
X141820000Y-101770000D02*
X148360000Y-101770000D01*
X148360000Y-99030000D02*
X148360000Y-99360000D01*
X148360000Y-101770000D02*
X148360000Y-101440000D01*
%TO.C,R39*%
X97420000Y-92130000D02*
X103960000Y-92130000D01*
X97420000Y-92460000D02*
X97420000Y-92130000D01*
X97420000Y-94540000D02*
X97420000Y-94870000D01*
X97420000Y-94870000D02*
X103960000Y-94870000D01*
X103960000Y-92130000D02*
X103960000Y-92460000D01*
X103960000Y-94870000D02*
X103960000Y-94540000D01*
%TO.C,R37*%
X97370000Y-85440000D02*
X103910000Y-85440000D01*
X97370000Y-85770000D02*
X97370000Y-85440000D01*
X97370000Y-87850000D02*
X97370000Y-88180000D01*
X97370000Y-88180000D02*
X103910000Y-88180000D01*
X103910000Y-85440000D02*
X103910000Y-85770000D01*
X103910000Y-88180000D02*
X103910000Y-87850000D01*
%TO.C,R17*%
X124630000Y-74030000D02*
X131170000Y-74030000D01*
X124630000Y-74360000D02*
X124630000Y-74030000D01*
X124630000Y-76440000D02*
X124630000Y-76770000D01*
X124630000Y-76770000D02*
X131170000Y-76770000D01*
X131170000Y-74030000D02*
X131170000Y-74360000D01*
X131170000Y-76770000D02*
X131170000Y-76440000D01*
%TO.C,R38*%
X97420000Y-88830000D02*
X103960000Y-88830000D01*
X97420000Y-89160000D02*
X97420000Y-88830000D01*
X97420000Y-91240000D02*
X97420000Y-91570000D01*
X97420000Y-91570000D02*
X103960000Y-91570000D01*
X103960000Y-88830000D02*
X103960000Y-89160000D01*
X103960000Y-91570000D02*
X103960000Y-91240000D01*
%TO.C,R33*%
X164420000Y-65630000D02*
X170960000Y-65630000D01*
X164420000Y-65960000D02*
X164420000Y-65630000D01*
X164420000Y-68040000D02*
X164420000Y-68370000D01*
X164420000Y-68370000D02*
X170960000Y-68370000D01*
X170960000Y-65630000D02*
X170960000Y-65960000D01*
X170960000Y-68370000D02*
X170960000Y-68040000D01*
%TO.C,R18*%
X124630000Y-77730000D02*
X131170000Y-77730000D01*
X124630000Y-78060000D02*
X124630000Y-77730000D01*
X124630000Y-80140000D02*
X124630000Y-80470000D01*
X124630000Y-80470000D02*
X131170000Y-80470000D01*
X131170000Y-77730000D02*
X131170000Y-78060000D01*
X131170000Y-80470000D02*
X131170000Y-80140000D01*
%TO.C,R31*%
X164410000Y-58630000D02*
X170950000Y-58630000D01*
X164410000Y-58960000D02*
X164410000Y-58630000D01*
X164410000Y-61040000D02*
X164410000Y-61370000D01*
X164410000Y-61370000D02*
X170950000Y-61370000D01*
X170950000Y-58630000D02*
X170950000Y-58960000D01*
X170950000Y-61370000D02*
X170950000Y-61040000D01*
%TO.C,R10*%
X124270000Y-48510000D02*
X130810000Y-48510000D01*
X124270000Y-48840000D02*
X124270000Y-48510000D01*
X124270000Y-50920000D02*
X124270000Y-51250000D01*
X124270000Y-51250000D02*
X130810000Y-51250000D01*
X130810000Y-48510000D02*
X130810000Y-48840000D01*
X130810000Y-51250000D02*
X130810000Y-50920000D01*
%TO.C,R48*%
X120220000Y-92130000D02*
X126760000Y-92130000D01*
X120220000Y-92460000D02*
X120220000Y-92130000D01*
X120220000Y-94540000D02*
X120220000Y-94870000D01*
X120220000Y-94870000D02*
X126760000Y-94870000D01*
X126760000Y-92130000D02*
X126760000Y-92460000D01*
X126760000Y-94870000D02*
X126760000Y-94540000D01*
%TO.C,R51*%
X120220000Y-102330000D02*
X126760000Y-102330000D01*
X120220000Y-102660000D02*
X120220000Y-102330000D01*
X120220000Y-104740000D02*
X120220000Y-105070000D01*
X120220000Y-105070000D02*
X126760000Y-105070000D01*
X126760000Y-102330000D02*
X126760000Y-102660000D01*
X126760000Y-105070000D02*
X126760000Y-104740000D01*
%TO.C,R26*%
X143430000Y-73130000D02*
X149970000Y-73130000D01*
X143430000Y-73460000D02*
X143430000Y-73130000D01*
X143430000Y-75540000D02*
X143430000Y-75870000D01*
X143430000Y-75870000D02*
X149970000Y-75870000D01*
X149970000Y-73130000D02*
X149970000Y-73460000D01*
X149970000Y-75870000D02*
X149970000Y-75540000D01*
%TO.C,J4*%
X153845000Y-48020000D02*
X155175000Y-48020000D01*
X153845000Y-49350000D02*
X153845000Y-48020000D01*
X153845000Y-50620000D02*
X153845000Y-73540000D01*
X153845000Y-50620000D02*
X156445000Y-50620000D01*
X153845000Y-73540000D02*
X159045000Y-73540000D01*
X156445000Y-48020000D02*
X159045000Y-48020000D01*
X156445000Y-50620000D02*
X156445000Y-48020000D01*
X159045000Y-48020000D02*
X159045000Y-73540000D01*
%TO.C,R20*%
X143220000Y-52030000D02*
X149760000Y-52030000D01*
X143220000Y-52360000D02*
X143220000Y-52030000D01*
X143220000Y-54440000D02*
X143220000Y-54770000D01*
X143220000Y-54770000D02*
X149760000Y-54770000D01*
X149760000Y-52030000D02*
X149760000Y-52360000D01*
X149760000Y-54770000D02*
X149760000Y-54440000D01*
%TO.C,R61*%
X141845000Y-105930000D02*
X148385000Y-105930000D01*
X141845000Y-106260000D02*
X141845000Y-105930000D01*
X141845000Y-108340000D02*
X141845000Y-108670000D01*
X141845000Y-108670000D02*
X148385000Y-108670000D01*
X148385000Y-105930000D02*
X148385000Y-106260000D01*
X148385000Y-108670000D02*
X148385000Y-108340000D01*
%TO.C,J6*%
X133530000Y-89310000D02*
X134860000Y-89310000D01*
X133530000Y-90640000D02*
X133530000Y-89310000D01*
X133530000Y-91910000D02*
X133530000Y-114830000D01*
X133530000Y-91910000D02*
X136130000Y-91910000D01*
X133530000Y-114830000D02*
X138730000Y-114830000D01*
X136130000Y-89310000D02*
X138730000Y-89310000D01*
X136130000Y-91910000D02*
X136130000Y-89310000D01*
X138730000Y-89310000D02*
X138730000Y-114830000D01*
%TO.C,R25*%
X143330000Y-69430000D02*
X149870000Y-69430000D01*
X143330000Y-69760000D02*
X143330000Y-69430000D01*
X143330000Y-71840000D02*
X143330000Y-72170000D01*
X143330000Y-72170000D02*
X149870000Y-72170000D01*
X149870000Y-69430000D02*
X149870000Y-69760000D01*
X149870000Y-72170000D02*
X149870000Y-71840000D01*
%TO.C,R8*%
X104720000Y-71730000D02*
X111260000Y-71730000D01*
X104720000Y-72060000D02*
X104720000Y-71730000D01*
X104720000Y-74140000D02*
X104720000Y-74470000D01*
X104720000Y-74470000D02*
X111260000Y-74470000D01*
X111260000Y-71730000D02*
X111260000Y-72060000D01*
X111260000Y-74470000D02*
X111260000Y-74140000D01*
%TO.C,R11*%
X124320000Y-51930000D02*
X130860000Y-51930000D01*
X124320000Y-52260000D02*
X124320000Y-51930000D01*
X124320000Y-54340000D02*
X124320000Y-54670000D01*
X124320000Y-54670000D02*
X130860000Y-54670000D01*
X130860000Y-51930000D02*
X130860000Y-52260000D01*
X130860000Y-54670000D02*
X130860000Y-54340000D01*
%TO.C,R23*%
X143320000Y-62530000D02*
X149860000Y-62530000D01*
X143320000Y-62860000D02*
X143320000Y-62530000D01*
X143320000Y-64940000D02*
X143320000Y-65270000D01*
X143320000Y-65270000D02*
X149860000Y-65270000D01*
X149860000Y-62530000D02*
X149860000Y-62860000D01*
X149860000Y-65270000D02*
X149860000Y-64940000D01*
%TO.C,J5*%
X111930000Y-89670000D02*
X113260000Y-89670000D01*
X111930000Y-91000000D02*
X111930000Y-89670000D01*
X111930000Y-92270000D02*
X111930000Y-115190000D01*
X111930000Y-92270000D02*
X114530000Y-92270000D01*
X111930000Y-115190000D02*
X117130000Y-115190000D01*
X114530000Y-89670000D02*
X117130000Y-89670000D01*
X114530000Y-92270000D02*
X114530000Y-89670000D01*
X117130000Y-89670000D02*
X117130000Y-115190000D01*
%TO.C,R5*%
X104780000Y-61830000D02*
X111320000Y-61830000D01*
X104780000Y-62160000D02*
X104780000Y-61830000D01*
X104780000Y-64240000D02*
X104780000Y-64570000D01*
X104780000Y-64570000D02*
X111320000Y-64570000D01*
X111320000Y-61830000D02*
X111320000Y-62160000D01*
X111320000Y-64570000D02*
X111320000Y-64240000D01*
%TO.C,R55*%
X141820000Y-85330000D02*
X148360000Y-85330000D01*
X141820000Y-85660000D02*
X141820000Y-85330000D01*
X141820000Y-87740000D02*
X141820000Y-88070000D01*
X141820000Y-88070000D02*
X148360000Y-88070000D01*
X148360000Y-85330000D02*
X148360000Y-85660000D01*
X148360000Y-88070000D02*
X148360000Y-87740000D01*
%TO.C,R30*%
X164410000Y-55230000D02*
X170950000Y-55230000D01*
X164410000Y-55560000D02*
X164410000Y-55230000D01*
X164410000Y-57640000D02*
X164410000Y-57970000D01*
X164410000Y-57970000D02*
X170950000Y-57970000D01*
X170950000Y-55230000D02*
X170950000Y-55560000D01*
X170950000Y-57970000D02*
X170950000Y-57640000D01*
%TO.C,R22*%
X143230000Y-59030000D02*
X149770000Y-59030000D01*
X143230000Y-59360000D02*
X143230000Y-59030000D01*
X143230000Y-61440000D02*
X143230000Y-61770000D01*
X143230000Y-61770000D02*
X149770000Y-61770000D01*
X149770000Y-59030000D02*
X149770000Y-59360000D01*
X149770000Y-61770000D02*
X149770000Y-61440000D01*
%TO.C,R41*%
X97420000Y-98730000D02*
X103960000Y-98730000D01*
X97420000Y-99060000D02*
X97420000Y-98730000D01*
X97420000Y-101140000D02*
X97420000Y-101470000D01*
X97420000Y-101470000D02*
X103960000Y-101470000D01*
X103960000Y-98730000D02*
X103960000Y-99060000D01*
X103960000Y-101470000D02*
X103960000Y-101140000D01*
%TO.C,R62*%
X141920000Y-109230000D02*
X148460000Y-109230000D01*
X141920000Y-109560000D02*
X141920000Y-109230000D01*
X141920000Y-111640000D02*
X141920000Y-111970000D01*
X141920000Y-111970000D02*
X148460000Y-111970000D01*
X148460000Y-109230000D02*
X148460000Y-109560000D01*
X148460000Y-111970000D02*
X148460000Y-111640000D01*
%TO.C,R53*%
X120220000Y-108930000D02*
X126760000Y-108930000D01*
X120220000Y-109260000D02*
X120220000Y-108930000D01*
X120220000Y-111340000D02*
X120220000Y-111670000D01*
X120220000Y-111670000D02*
X126760000Y-111670000D01*
X126760000Y-108930000D02*
X126760000Y-109260000D01*
X126760000Y-111670000D02*
X126760000Y-111340000D01*
%TO.C,R60*%
X141820000Y-102430000D02*
X148360000Y-102430000D01*
X141820000Y-102760000D02*
X141820000Y-102430000D01*
X141820000Y-104840000D02*
X141820000Y-105170000D01*
X141820000Y-105170000D02*
X148360000Y-105170000D01*
X148360000Y-102430000D02*
X148360000Y-102760000D01*
X148360000Y-105170000D02*
X148360000Y-104840000D01*
%TO.C,R35*%
X164520000Y-72330000D02*
X171060000Y-72330000D01*
X164520000Y-72660000D02*
X164520000Y-72330000D01*
X164520000Y-74740000D02*
X164520000Y-75070000D01*
X164520000Y-75070000D02*
X171060000Y-75070000D01*
X171060000Y-72330000D02*
X171060000Y-72660000D01*
X171060000Y-75070000D02*
X171060000Y-74740000D01*
%TO.C,R42*%
X97420000Y-102130000D02*
X103960000Y-102130000D01*
X97420000Y-102460000D02*
X97420000Y-102130000D01*
X97420000Y-104540000D02*
X97420000Y-104870000D01*
X97420000Y-104870000D02*
X103960000Y-104870000D01*
X103960000Y-102130000D02*
X103960000Y-102460000D01*
X103960000Y-104870000D02*
X103960000Y-104540000D01*
%TO.C,R40*%
X97420000Y-95430000D02*
X103960000Y-95430000D01*
X97420000Y-95760000D02*
X97420000Y-95430000D01*
X97420000Y-97840000D02*
X97420000Y-98170000D01*
X97420000Y-98170000D02*
X103960000Y-98170000D01*
X103960000Y-95430000D02*
X103960000Y-95760000D01*
X103960000Y-98170000D02*
X103960000Y-97840000D01*
%TO.C,R49*%
X120220000Y-95530000D02*
X126760000Y-95530000D01*
X120220000Y-95860000D02*
X120220000Y-95530000D01*
X120220000Y-97940000D02*
X120220000Y-98270000D01*
X120220000Y-98270000D02*
X126760000Y-98270000D01*
X126760000Y-95530000D02*
X126760000Y-95860000D01*
X126760000Y-98270000D02*
X126760000Y-97940000D01*
%TO.C,R47*%
X120120000Y-88730000D02*
X126660000Y-88730000D01*
X120120000Y-89060000D02*
X120120000Y-88730000D01*
X120120000Y-91140000D02*
X120120000Y-91470000D01*
X120120000Y-91470000D02*
X126660000Y-91470000D01*
X126660000Y-88730000D02*
X126660000Y-89060000D01*
X126660000Y-91470000D02*
X126660000Y-91140000D01*
%TO.C,R52*%
X120220000Y-105430000D02*
X126760000Y-105430000D01*
X120220000Y-105760000D02*
X120220000Y-105430000D01*
X120220000Y-107840000D02*
X120220000Y-108170000D01*
X120220000Y-108170000D02*
X126760000Y-108170000D01*
X126760000Y-105430000D02*
X126760000Y-105760000D01*
X126760000Y-108170000D02*
X126760000Y-107840000D01*
%TO.C,R45*%
X97620000Y-112630000D02*
X104160000Y-112630000D01*
X97620000Y-112960000D02*
X97620000Y-112630000D01*
X97620000Y-115040000D02*
X97620000Y-115370000D01*
X97620000Y-115370000D02*
X104160000Y-115370000D01*
X104160000Y-112630000D02*
X104160000Y-112960000D01*
X104160000Y-115370000D02*
X104160000Y-115040000D01*
%TO.C,R9*%
X104820000Y-75030000D02*
X111360000Y-75030000D01*
X104820000Y-75360000D02*
X104820000Y-75030000D01*
X104820000Y-77440000D02*
X104820000Y-77770000D01*
X104820000Y-77770000D02*
X111360000Y-77770000D01*
X111360000Y-75030000D02*
X111360000Y-75360000D01*
X111360000Y-77770000D02*
X111360000Y-77440000D01*
%TO.C,R21*%
X143180000Y-55530000D02*
X149720000Y-55530000D01*
X143180000Y-55860000D02*
X143180000Y-55530000D01*
X143180000Y-57940000D02*
X143180000Y-58270000D01*
X143180000Y-58270000D02*
X149720000Y-58270000D01*
X149720000Y-55530000D02*
X149720000Y-55860000D01*
X149720000Y-58270000D02*
X149720000Y-57940000D01*
%TO.C,R34*%
X164410000Y-69030000D02*
X170950000Y-69030000D01*
X164410000Y-69360000D02*
X164410000Y-69030000D01*
X164410000Y-71440000D02*
X164410000Y-71770000D01*
X164410000Y-71770000D02*
X170950000Y-71770000D01*
X170950000Y-69030000D02*
X170950000Y-69360000D01*
X170950000Y-71770000D02*
X170950000Y-71440000D01*
%TO.C,J3*%
X133895000Y-48070000D02*
X135225000Y-48070000D01*
X133895000Y-49400000D02*
X133895000Y-48070000D01*
X133895000Y-50670000D02*
X133895000Y-73590000D01*
X133895000Y-50670000D02*
X136495000Y-50670000D01*
X133895000Y-73590000D02*
X139095000Y-73590000D01*
X136495000Y-48070000D02*
X139095000Y-48070000D01*
X136495000Y-50670000D02*
X136495000Y-48070000D01*
X139095000Y-48070000D02*
X139095000Y-73590000D01*
%TO.C,R14*%
X124530000Y-63030000D02*
X131070000Y-63030000D01*
X124530000Y-63360000D02*
X124530000Y-63030000D01*
X124530000Y-65440000D02*
X124530000Y-65770000D01*
X124530000Y-65770000D02*
X131070000Y-65770000D01*
X131070000Y-63030000D02*
X131070000Y-63360000D01*
X131070000Y-65770000D02*
X131070000Y-65440000D01*
%TO.C,R50*%
X120220000Y-98930000D02*
X126760000Y-98930000D01*
X120220000Y-99260000D02*
X120220000Y-98930000D01*
X120220000Y-101340000D02*
X120220000Y-101670000D01*
X120220000Y-101670000D02*
X126760000Y-101670000D01*
X126760000Y-98930000D02*
X126760000Y-99260000D01*
X126760000Y-101670000D02*
X126760000Y-101340000D01*
%TO.C,J9*%
X95495000Y-47720000D02*
X96825000Y-47720000D01*
X95495000Y-49050000D02*
X95495000Y-47720000D01*
X95495000Y-50320000D02*
X95495000Y-73240000D01*
X95495000Y-50320000D02*
X98095000Y-50320000D01*
X95495000Y-73240000D02*
X100695000Y-73240000D01*
X98095000Y-47720000D02*
X100695000Y-47720000D01*
X98095000Y-50320000D02*
X98095000Y-47720000D01*
X100695000Y-47720000D02*
X100695000Y-73240000D01*
%TO.C,R27*%
X143520000Y-76730000D02*
X150060000Y-76730000D01*
X143520000Y-77060000D02*
X143520000Y-76730000D01*
X143520000Y-79140000D02*
X143520000Y-79470000D01*
X143520000Y-79470000D02*
X150060000Y-79470000D01*
X150060000Y-76730000D02*
X150060000Y-77060000D01*
X150060000Y-79470000D02*
X150060000Y-79140000D01*
%TO.C,R12*%
X124430000Y-55730000D02*
X130970000Y-55730000D01*
X124430000Y-56060000D02*
X124430000Y-55730000D01*
X124430000Y-58140000D02*
X124430000Y-58470000D01*
X124430000Y-58470000D02*
X130970000Y-58470000D01*
X130970000Y-55730000D02*
X130970000Y-56060000D01*
X130970000Y-58470000D02*
X130970000Y-58140000D01*
%TO.C,J7*%
X155730000Y-89450000D02*
X157060000Y-89450000D01*
X155730000Y-90780000D02*
X155730000Y-89450000D01*
X155730000Y-92050000D02*
X155730000Y-114970000D01*
X155730000Y-92050000D02*
X158330000Y-92050000D01*
X155730000Y-114970000D02*
X160930000Y-114970000D01*
X158330000Y-89450000D02*
X160930000Y-89450000D01*
X158330000Y-92050000D02*
X158330000Y-89450000D01*
X160930000Y-89450000D02*
X160930000Y-114970000D01*
%TD*%
M02*
