%TF.GenerationSoftware,KiCad,Pcbnew,7.0.1*%
%TF.CreationDate,2025-02-25T21:51:13-03:00*%
%TF.ProjectId,resistorDecade,72657369-7374-46f7-9244-65636164652e,rev?*%
%TF.SameCoordinates,Original*%
%TF.FileFunction,Soldermask,Top*%
%TF.FilePolarity,Negative*%
%FSLAX46Y46*%
G04 Gerber Fmt 4.6, Leading zero omitted, Abs format (unit mm)*
G04 Created by KiCad (PCBNEW 7.0.1) date 2025-02-25 21:51:13*
%MOMM*%
%LPD*%
G01*
G04 APERTURE LIST*
%ADD10C,1.600000*%
%ADD11O,1.600000X1.600000*%
%ADD12R,1.700000X1.700000*%
%ADD13O,1.700000X1.700000*%
%ADD14R,2.500000X2.500000*%
%ADD15C,2.500000*%
G04 APERTURE END LIST*
D10*
%TO.C,R16*%
X123990000Y-71900000D03*
D11*
X131610000Y-71900000D03*
%TD*%
D10*
%TO.C,R3*%
X104240000Y-56300000D03*
D11*
X111860000Y-56300000D03*
%TD*%
D10*
%TO.C,R54*%
X119680000Y-113800000D03*
D11*
X127300000Y-113800000D03*
%TD*%
D10*
%TO.C,R15*%
X123990000Y-68300000D03*
D11*
X131610000Y-68300000D03*
%TD*%
D12*
%TO.C,J2*%
X116475000Y-49420000D03*
D13*
X119015000Y-49420000D03*
X116475000Y-51960000D03*
X119015000Y-51960000D03*
X116475000Y-54500000D03*
X119015000Y-54500000D03*
X116475000Y-57040000D03*
X119015000Y-57040000D03*
X116475000Y-59580000D03*
X119015000Y-59580000D03*
X116475000Y-62120000D03*
X119015000Y-62120000D03*
X116475000Y-64660000D03*
X119015000Y-64660000D03*
X116475000Y-67200000D03*
X119015000Y-67200000D03*
X116475000Y-69740000D03*
X119015000Y-69740000D03*
X116475000Y-72280000D03*
X119015000Y-72280000D03*
%TD*%
D10*
%TO.C,R13*%
X123990000Y-60700000D03*
D11*
X131610000Y-60700000D03*
%TD*%
D10*
%TO.C,R1*%
X104240000Y-49670000D03*
D11*
X111860000Y-49670000D03*
%TD*%
D10*
%TO.C,R29*%
X163880000Y-53100000D03*
D11*
X171500000Y-53100000D03*
%TD*%
D10*
%TO.C,R36*%
X163980000Y-77000000D03*
D11*
X171600000Y-77000000D03*
%TD*%
D10*
%TO.C,R46*%
X119580000Y-86700000D03*
D11*
X127200000Y-86700000D03*
%TD*%
D10*
%TO.C,R63*%
X141380000Y-114000000D03*
D11*
X149000000Y-114000000D03*
%TD*%
D10*
%TO.C,R28*%
X163870000Y-49675000D03*
D11*
X171490000Y-49675000D03*
%TD*%
D10*
%TO.C,R56*%
X141280000Y-90100000D03*
D11*
X148900000Y-90100000D03*
%TD*%
D10*
%TO.C,R43*%
X96980000Y-107000000D03*
D11*
X104600000Y-107000000D03*
%TD*%
D10*
%TO.C,R2*%
X104240000Y-52900000D03*
D11*
X111860000Y-52900000D03*
%TD*%
D10*
%TO.C,R4*%
X104240000Y-59700000D03*
D11*
X111860000Y-59700000D03*
%TD*%
D10*
%TO.C,R32*%
X163880000Y-63600000D03*
D11*
X171500000Y-63600000D03*
%TD*%
D10*
%TO.C,R58*%
X141305000Y-97000000D03*
D11*
X148925000Y-97000000D03*
%TD*%
D10*
%TO.C,R19*%
X142640000Y-49875000D03*
D11*
X150260000Y-49875000D03*
%TD*%
D10*
%TO.C,R6*%
X104180000Y-66500000D03*
D11*
X111800000Y-66500000D03*
%TD*%
D10*
%TO.C,R24*%
X142780000Y-67500000D03*
D11*
X150400000Y-67500000D03*
%TD*%
D10*
%TO.C,R57*%
X141280000Y-93500000D03*
D11*
X148900000Y-93500000D03*
%TD*%
D14*
%TO.C,J1*%
X168100000Y-84400000D03*
D15*
X168100000Y-89400000D03*
%TD*%
D10*
%TO.C,R7*%
X104180000Y-69700000D03*
D11*
X111800000Y-69700000D03*
%TD*%
D10*
%TO.C,R44*%
X97080000Y-110600000D03*
D11*
X104700000Y-110600000D03*
%TD*%
D10*
%TO.C,R59*%
X141280000Y-100400000D03*
D11*
X148900000Y-100400000D03*
%TD*%
D10*
%TO.C,R39*%
X96880000Y-93500000D03*
D11*
X104500000Y-93500000D03*
%TD*%
D10*
%TO.C,R37*%
X96830000Y-86810000D03*
D11*
X104450000Y-86810000D03*
%TD*%
D10*
%TO.C,R17*%
X124090000Y-75400000D03*
D11*
X131710000Y-75400000D03*
%TD*%
D10*
%TO.C,R38*%
X96880000Y-90200000D03*
D11*
X104500000Y-90200000D03*
%TD*%
D10*
%TO.C,R33*%
X163880000Y-67000000D03*
D11*
X171500000Y-67000000D03*
%TD*%
D10*
%TO.C,R18*%
X124090000Y-79100000D03*
D11*
X131710000Y-79100000D03*
%TD*%
D10*
%TO.C,R31*%
X163870000Y-60000000D03*
D11*
X171490000Y-60000000D03*
%TD*%
D10*
%TO.C,R10*%
X123730000Y-49880000D03*
D11*
X131350000Y-49880000D03*
%TD*%
D10*
%TO.C,R48*%
X119680000Y-93500000D03*
D11*
X127300000Y-93500000D03*
%TD*%
D10*
%TO.C,R51*%
X119680000Y-103700000D03*
D11*
X127300000Y-103700000D03*
%TD*%
D10*
%TO.C,R26*%
X142890000Y-74500000D03*
D11*
X150510000Y-74500000D03*
%TD*%
D12*
%TO.C,J4*%
X155175000Y-49350000D03*
D13*
X157715000Y-49350000D03*
X155175000Y-51890000D03*
X157715000Y-51890000D03*
X155175000Y-54430000D03*
X157715000Y-54430000D03*
X155175000Y-56970000D03*
X157715000Y-56970000D03*
X155175000Y-59510000D03*
X157715000Y-59510000D03*
X155175000Y-62050000D03*
X157715000Y-62050000D03*
X155175000Y-64590000D03*
X157715000Y-64590000D03*
X155175000Y-67130000D03*
X157715000Y-67130000D03*
X155175000Y-69670000D03*
X157715000Y-69670000D03*
X155175000Y-72210000D03*
X157715000Y-72210000D03*
%TD*%
D10*
%TO.C,R20*%
X142680000Y-53400000D03*
D11*
X150300000Y-53400000D03*
%TD*%
D10*
%TO.C,R61*%
X141305000Y-107300000D03*
D11*
X148925000Y-107300000D03*
%TD*%
D12*
%TO.C,J6*%
X134860000Y-90640000D03*
D13*
X137400000Y-90640000D03*
X134860000Y-93180000D03*
X137400000Y-93180000D03*
X134860000Y-95720000D03*
X137400000Y-95720000D03*
X134860000Y-98260000D03*
X137400000Y-98260000D03*
X134860000Y-100800000D03*
X137400000Y-100800000D03*
X134860000Y-103340000D03*
X137400000Y-103340000D03*
X134860000Y-105880000D03*
X137400000Y-105880000D03*
X134860000Y-108420000D03*
X137400000Y-108420000D03*
X134860000Y-110960000D03*
X137400000Y-110960000D03*
X134860000Y-113500000D03*
X137400000Y-113500000D03*
%TD*%
D10*
%TO.C,R25*%
X142790000Y-70800000D03*
D11*
X150410000Y-70800000D03*
%TD*%
D10*
%TO.C,R8*%
X104180000Y-73100000D03*
D11*
X111800000Y-73100000D03*
%TD*%
D10*
%TO.C,R11*%
X123780000Y-53300000D03*
D11*
X131400000Y-53300000D03*
%TD*%
D10*
%TO.C,R23*%
X142780000Y-63900000D03*
D11*
X150400000Y-63900000D03*
%TD*%
D12*
%TO.C,J5*%
X113260000Y-91000000D03*
D13*
X115800000Y-91000000D03*
X113260000Y-93540000D03*
X115800000Y-93540000D03*
X113260000Y-96080000D03*
X115800000Y-96080000D03*
X113260000Y-98620000D03*
X115800000Y-98620000D03*
X113260000Y-101160000D03*
X115800000Y-101160000D03*
X113260000Y-103700000D03*
X115800000Y-103700000D03*
X113260000Y-106240000D03*
X115800000Y-106240000D03*
X113260000Y-108780000D03*
X115800000Y-108780000D03*
X113260000Y-111320000D03*
X115800000Y-111320000D03*
X113260000Y-113860000D03*
X115800000Y-113860000D03*
%TD*%
D10*
%TO.C,R5*%
X104240000Y-63200000D03*
D11*
X111860000Y-63200000D03*
%TD*%
D10*
%TO.C,R55*%
X141280000Y-86700000D03*
D11*
X148900000Y-86700000D03*
%TD*%
D10*
%TO.C,R30*%
X163870000Y-56600000D03*
D11*
X171490000Y-56600000D03*
%TD*%
D10*
%TO.C,R22*%
X142690000Y-60400000D03*
D11*
X150310000Y-60400000D03*
%TD*%
D10*
%TO.C,R41*%
X96880000Y-100100000D03*
D11*
X104500000Y-100100000D03*
%TD*%
D10*
%TO.C,R62*%
X141380000Y-110600000D03*
D11*
X149000000Y-110600000D03*
%TD*%
D10*
%TO.C,R53*%
X119680000Y-110300000D03*
D11*
X127300000Y-110300000D03*
%TD*%
D10*
%TO.C,R60*%
X141280000Y-103800000D03*
D11*
X148900000Y-103800000D03*
%TD*%
D10*
%TO.C,R35*%
X163980000Y-73700000D03*
D11*
X171600000Y-73700000D03*
%TD*%
D10*
%TO.C,R42*%
X96880000Y-103500000D03*
D11*
X104500000Y-103500000D03*
%TD*%
D10*
%TO.C,R40*%
X96880000Y-96800000D03*
D11*
X104500000Y-96800000D03*
%TD*%
D10*
%TO.C,R49*%
X119680000Y-96900000D03*
D11*
X127300000Y-96900000D03*
%TD*%
D10*
%TO.C,R47*%
X119580000Y-90100000D03*
D11*
X127200000Y-90100000D03*
%TD*%
D10*
%TO.C,R52*%
X119680000Y-106800000D03*
D11*
X127300000Y-106800000D03*
%TD*%
D10*
%TO.C,R45*%
X97080000Y-114000000D03*
D11*
X104700000Y-114000000D03*
%TD*%
D10*
%TO.C,R9*%
X104280000Y-76400000D03*
D11*
X111900000Y-76400000D03*
%TD*%
D10*
%TO.C,R21*%
X142640000Y-56900000D03*
D11*
X150260000Y-56900000D03*
%TD*%
D10*
%TO.C,R34*%
X163870000Y-70400000D03*
D11*
X171490000Y-70400000D03*
%TD*%
D12*
%TO.C,J3*%
X135225000Y-49400000D03*
D13*
X137765000Y-49400000D03*
X135225000Y-51940000D03*
X137765000Y-51940000D03*
X135225000Y-54480000D03*
X137765000Y-54480000D03*
X135225000Y-57020000D03*
X137765000Y-57020000D03*
X135225000Y-59560000D03*
X137765000Y-59560000D03*
X135225000Y-62100000D03*
X137765000Y-62100000D03*
X135225000Y-64640000D03*
X137765000Y-64640000D03*
X135225000Y-67180000D03*
X137765000Y-67180000D03*
X135225000Y-69720000D03*
X137765000Y-69720000D03*
X135225000Y-72260000D03*
X137765000Y-72260000D03*
%TD*%
D10*
%TO.C,R14*%
X123990000Y-64400000D03*
D11*
X131610000Y-64400000D03*
%TD*%
D10*
%TO.C,R50*%
X119680000Y-100300000D03*
D11*
X127300000Y-100300000D03*
%TD*%
D12*
%TO.C,J9*%
X96825000Y-49050000D03*
D13*
X99365000Y-49050000D03*
X96825000Y-51590000D03*
X99365000Y-51590000D03*
X96825000Y-54130000D03*
X99365000Y-54130000D03*
X96825000Y-56670000D03*
X99365000Y-56670000D03*
X96825000Y-59210000D03*
X99365000Y-59210000D03*
X96825000Y-61750000D03*
X99365000Y-61750000D03*
X96825000Y-64290000D03*
X99365000Y-64290000D03*
X96825000Y-66830000D03*
X99365000Y-66830000D03*
X96825000Y-69370000D03*
X99365000Y-69370000D03*
X96825000Y-71910000D03*
X99365000Y-71910000D03*
%TD*%
D10*
%TO.C,R27*%
X142980000Y-78100000D03*
D11*
X150600000Y-78100000D03*
%TD*%
D10*
%TO.C,R12*%
X123890000Y-57100000D03*
D11*
X131510000Y-57100000D03*
%TD*%
D12*
%TO.C,J7*%
X157060000Y-90780000D03*
D13*
X159600000Y-90780000D03*
X157060000Y-93320000D03*
X159600000Y-93320000D03*
X157060000Y-95860000D03*
X159600000Y-95860000D03*
X157060000Y-98400000D03*
X159600000Y-98400000D03*
X157060000Y-100940000D03*
X159600000Y-100940000D03*
X157060000Y-103480000D03*
X159600000Y-103480000D03*
X157060000Y-106020000D03*
X159600000Y-106020000D03*
X157060000Y-108560000D03*
X159600000Y-108560000D03*
X157060000Y-111100000D03*
X159600000Y-111100000D03*
X157060000Y-113640000D03*
X159600000Y-113640000D03*
%TD*%
M02*
